<svg xmlns="http://www.w3.org/2000/svg" xmlns:xlink="http://www.w3.org/1999/xlink" xmlns:lucid="lucid" width="946" height="582.23"><g transform="translate(-1017 239.23260000000028)" lucid:page-tab-id="HlU8db~XGQgH"><path d="M1360.6-143.56h283.08v86.32H1360.6z" stroke="#000" stroke-width="6" fill="#ffeca9"/><use xlink:href="#a" transform="matrix(1,0,0,1,1379.5060858527884,-124.65570210326192) translate(0 28.249999999999993)"/><use xlink:href="#b" transform="matrix(1,0,0,1,1379.5060858527884,-124.65570210326192) translate(93.72222222222217 28.249999999999993)"/><use xlink:href="#c" transform="matrix(1,0,0,1,1379.5060858527884,-124.65570210326192) translate(114.27777777777771 28.249999999999993)"/><use xlink:href="#d" transform="matrix(1,0,0,1,1379.5060858527884,-124.65570210326192) translate(193.4999999999999 28.249999999999993)"/><path d="M1041.74-216.22h306.1v60.14h-306.1z" stroke="#000" stroke-width="6" fill="#ff8f80"/><use xlink:href="#e" transform="matrix(1,0,0,1,1046.7380674156855,-211.22015667933863) translate(42.46296296296299 30.895833333333332)"/><use xlink:href="#f" transform="matrix(1,0,0,1,1046.7380674156855,-211.22015667933863) translate(158.53703703703704 30.895833333333332)"/><path d="M1655.32-216.23h282.33v60.15h-282.33z" stroke="#000" stroke-width="6" fill="#83bbe5"/><use xlink:href="#g" transform="matrix(1,0,0,1,1660.3169882646825,-211.23260000000025) translate(31.90740740740742 30.895833333333332)"/><use xlink:href="#f" transform="matrix(1,0,0,1,1660.3169882646825,-211.23260000000025) translate(145.09259259259258 30.895833333333332)"/><path d="M1360.4-216.23h282.34v60.15H1360.4z" stroke="#000" stroke-width="6" fill="#fcc438"/><use xlink:href="#h" transform="matrix(1,0,0,1,1365.4060886645489,-211.23260000000028) translate(26.09259259259261 30.895833333333332)"/><use xlink:href="#f" transform="matrix(1,0,0,1,1365.4060886645489,-211.23260000000028) translate(150.9074074074074 30.895833333333332)"/><path d="M1041.73-143.56h306.9V-55h-306.9z" stroke="#000" stroke-width="6" fill="#ffbbb1"/><use xlink:href="#i" transform="matrix(1,0,0,1,1060.6328321489123,-124.6557021032618) translate(0 19.543055555555547)"/><use xlink:href="#j" transform="matrix(1,0,0,1,1060.6328321489123,-124.6557021032618) translate(45.8296296296296 19.543055555555547)"/><use xlink:href="#k" transform="matrix(1,0,0,1,1060.6328321489123,-124.6557021032618) translate(67.92098765432095 19.543055555555547)"/><use xlink:href="#l" transform="matrix(1,0,0,1,1060.6328321489123,-124.6557021032618) translate(162.59012345679002 19.543055555555547)"/><use xlink:href="#m" transform="matrix(1,0,0,1,1060.6328321489123,-124.6557021032618) translate(0 44.07638888888887)"/><use xlink:href="#n" transform="matrix(1,0,0,1,1060.6328321489123,-124.6557021032618) translate(83.25432098765428 44.07638888888887)"/><use xlink:href="#o" transform="matrix(1,0,0,1,1060.6328321489123,-124.6557021032618) translate(117.83950617283944 44.07638888888887)"/><use xlink:href="#p" transform="matrix(1,0,0,1,1060.6328321489123,-124.6557021032618) translate(187.4074074074073 44.07638888888887)"/><path d="M1655.32-143.56h282.33V100h-282.33z" stroke="#000" stroke-width="6" fill="#c1e4f7"/><use xlink:href="#q" transform="matrix(1,0,0,1,1674.2169882646826,-124.65570210326192) translate(0 48.18749999999999)"/><use xlink:href="#r" transform="matrix(1,0,0,1,1674.2169882646826,-124.65570210326192) translate(54.77777777777775 48.18749999999999)"/><use xlink:href="#s" transform="matrix(1,0,0,1,1674.2169882646826,-124.65570210326192) translate(99.72222222222217 48.18749999999999)"/><use xlink:href="#t" transform="matrix(1,0,0,1,1674.2169882646826,-124.65570210326192) translate(9.833333333333332 72.18749999999997)"/><use xlink:href="#u" transform="matrix(1,0,0,1,1674.2169882646826,-124.65570210326192) translate(26.66666666666666 72.18749999999997)"/><use xlink:href="#v" transform="matrix(1,0,0,1,1674.2169882646826,-124.65570210326192) translate(93.83333333333329 72.18749999999997)"/><use xlink:href="#w" transform="matrix(1,0,0,1,1674.2169882646826,-124.65570210326192) translate(124.38888888888883 72.18749999999997)"/><use xlink:href="#x" transform="matrix(1,0,0,1,1674.2169882646826,-124.65570210326192) translate(145.99999999999991 72.18749999999997)"/><use xlink:href="#y" transform="matrix(1,0,0,1,1674.2169882646826,-124.65570210326192) translate(26.66666666666666 96.18749999999997)"/><use xlink:href="#z" transform="matrix(1,0,0,1,1674.2169882646826,-124.65570210326192) translate(108.22222222222216 96.18749999999997)"/><use xlink:href="#A" transform="matrix(1,0,0,1,1674.2169882646826,-124.65570210326192) translate(36.472222222222214 120.18749999999994)"/><use xlink:href="#B" transform="matrix(1,0,0,1,1674.2169882646826,-124.65570210326192) translate(53.33333333333332 120.18749999999994)"/><use xlink:href="#A" transform="matrix(1,0,0,1,1674.2169882646826,-124.65570210326192) translate(36.472222222222214 144.18749999999994)"/><use xlink:href="#C" transform="matrix(1,0,0,1,1674.2169882646826,-124.65570210326192) translate(53.33333333333332 144.18749999999994)"/><use xlink:href="#A" transform="matrix(1,0,0,1,1674.2169882646826,-124.65570210326192) translate(36.472222222222214 168.18749999999994)"/><use xlink:href="#D" transform="matrix(1,0,0,1,1674.2169882646826,-124.65570210326192) translate(53.33333333333332 168.18749999999994)"/><use xlink:href="#E" transform="matrix(1,0,0,1,1674.2169882646826,-124.65570210326192) translate(127.1666666666666 168.18749999999994)"/><use xlink:href="#F" transform="matrix(1,0,0,1,1674.2169882646826,-124.65570210326192) translate(155.3888888888888 168.18749999999994)"/><path d="M1041.73-43.17h306.9V55.6h-306.9z" stroke="#000" stroke-width="6" fill="#ffbbb1"/><g><use xlink:href="#G" transform="matrix(1,0,0,1,1060.6328321489123,-24.27191708226384) translate(0 15.999999999999993)"/><use xlink:href="#w" transform="matrix(1,0,0,1,1060.6328321489123,-24.27191708226384) translate(44.833333333333314 15.999999999999993)"/><use xlink:href="#H" transform="matrix(1,0,0,1,1060.6328321489123,-24.27191708226384) translate(66.44444444444441 15.999999999999993)"/><use xlink:href="#I" transform="matrix(1,0,0,1,1060.6328321489123,-24.27191708226384) translate(184.61111111111103 15.999999999999993)"/><use xlink:href="#J" transform="matrix(1,0,0,1,1060.6328321489123,-24.27191708226384) translate(0 39.999999999999986)"/><use xlink:href="#K" transform="matrix(1,0,0,1,1060.6328321489123,-24.27191708226384) translate(81.4444444444444 39.999999999999986)"/><use xlink:href="#L" transform="matrix(1,0,0,1,1060.6328321489123,-24.27191708226384) translate(138.5555555555555 39.999999999999986)"/><use xlink:href="#M" transform="matrix(1,0,0,1,1060.6328321489123,-24.27191708226384) translate(160.16666666666657 39.999999999999986)"/><use xlink:href="#F" transform="matrix(1,0,0,1,1060.6328321489123,-24.27191708226384) translate(0 63.99999999999997)"/></g><path d="M1040.87 67.44h306.9v76.76h-306.9z" stroke="#000" stroke-width="6" fill="#ffbbb1"/><g><use xlink:href="#G" transform="matrix(1,0,0,1,1059.7664160744562,86.3391933387206) translate(0 15.999999999999993)"/><use xlink:href="#w" transform="matrix(1,0,0,1,1059.7664160744562,86.3391933387206) translate(44.833333333333314 15.999999999999993)"/><use xlink:href="#H" transform="matrix(1,0,0,1,1059.7664160744562,86.3391933387206) translate(66.44444444444441 15.999999999999993)"/><use xlink:href="#w" transform="matrix(1,0,0,1,1059.7664160744562,86.3391933387206) translate(184.61111111111103 15.999999999999993)"/><use xlink:href="#N" transform="matrix(1,0,0,1,1059.7664160744562,86.3391933387206) translate(206.22222222222211 15.999999999999993)"/><use xlink:href="#O" transform="matrix(1,0,0,1,1059.7664160744562,86.3391933387206) translate(0 39.999999999999986)"/><use xlink:href="#P" transform="matrix(1,0,0,1,1059.7664160744562,86.3391933387206) translate(83.72222222222219 39.999999999999986)"/></g><path d="M1040 156.03h306.9v76.76H1040z" stroke="#000" stroke-width="6" fill="#ffbbb1"/><g><use xlink:href="#Q" transform="matrix(1,0,0,1,1058.9,174.92956232454205) translate(0 15.999999999999993)"/><use xlink:href="#R" transform="matrix(1,0,0,1,1058.9,174.92956232454205) translate(42.7222222222222 15.999999999999993)"/><use xlink:href="#S" transform="matrix(1,0,0,1,1058.9,174.92956232454205) translate(171.99999999999991 15.999999999999993)"/><use xlink:href="#T" transform="matrix(1,0,0,1,1058.9,174.92956232454205) translate(0 39.999999999999986)"/><use xlink:href="#U" transform="matrix(1,0,0,1,1058.9,174.92956232454205) translate(86.88888888888884 39.999999999999986)"/></g><path d="M1040 244.43h306.9V320H1040z" stroke="#000" stroke-width="6" fill="#ffbbb1"/><g><use xlink:href="#V" transform="matrix(1,0,0,1,1058.9,263.33188898382576) translate(0 15.999999999999993)"/><use xlink:href="#W" transform="matrix(1,0,0,1,1058.9,263.33188898382576) translate(80.4444444444444 15.999999999999993)"/><use xlink:href="#X" transform="matrix(1,0,0,1,1058.9,263.33188898382576) translate(116.55555555555549 15.999999999999993)"/><use xlink:href="#Y" transform="matrix(1,0,0,1,1058.9,263.33188898382576) translate(205.77777777777766 15.999999999999993)"/><use xlink:href="#N" transform="matrix(1,0,0,1,1058.9,263.33188898382576) translate(225.16666666666654 15.999999999999993)"/><use xlink:href="#Z" transform="matrix(1,0,0,1,1058.9,263.33188898382576) translate(0 39.999999999999986)"/><use xlink:href="#aa" transform="matrix(1,0,0,1,1058.9,263.33188898382576) translate(68.27777777777773 39.999999999999986)"/></g><path d="M1645.08 106.94H1362V51.5h283.08z" stroke="#000" stroke-width="6" fill="#ffeca9"/><g><use xlink:href="#ab" transform="matrix(1,0,0,1,1380.9063888184833,70.40446286345563) translate(0 15.999999999999993)"/><use xlink:href="#w" transform="matrix(1,0,0,1,1380.9063888184833,70.40446286345563) translate(119.22222222222217 15.999999999999993)"/><use xlink:href="#ac" transform="matrix(1,0,0,1,1380.9063888184833,70.40446286345563) translate(140.83333333333326 15.999999999999993)"/></g><path d="M1362 118.5h283.08v54.9H1362z" stroke="#000" stroke-width="6" fill="#ffeca9"/><g><use xlink:href="#ad" transform="matrix(1,0,0,1,1380.9063888184833,137.39064185592682) translate(0 15.999999999999993)"/><use xlink:href="#ae" transform="matrix(1,0,0,1,1380.9063888184833,137.39064185592682) translate(47.16666666666664 15.999999999999993)"/><use xlink:href="#af" transform="matrix(1,0,0,1,1380.9063888184833,137.39064185592682) translate(86.49999999999996 15.999999999999993)"/></g><path d="M1362 258.1h283.08v59.66H1362z" stroke="#000" stroke-width="6" fill="#ffeca9"/><g><use xlink:href="#ag" transform="matrix(1,0,0,1,1380.9063888184833,277.0091347304378) translate(0 17.374999999999993)"/><use xlink:href="#ah" transform="matrix(1,0,0,1,1380.9063888184833,277.0091347304378) translate(63.77777777777774 17.374999999999993)"/></g><path d="M1362 185.2h283.08v59.67H1362z" stroke="#000" stroke-width="6" fill="#ffeca9"/><g><use xlink:href="#ai" transform="matrix(1,0,0,1,1380.9063888184833,204.1133187392364) translate(0 17.374999999999993)"/><use xlink:href="#aj" transform="matrix(1,0,0,1,1380.9063888184833,204.1133187392364) translate(88.22222222222217 17.374999999999993)"/><use xlink:href="#ak" transform="matrix(1,0,0,1,1380.9063888184833,204.1133187392364) translate(126.33333333333326 17.374999999999993)"/></g><path d="M1361.2-46h283.08V40.3l-283.07.02z" stroke="#000" stroke-width="6" fill="#ffeca9"/><g><use xlink:href="#a" transform="matrix(1,0,0,1,1380.1088472191427,-27.103221906683174) translate(0 19.062499999999993)"/><use xlink:href="#b" transform="matrix(1,0,0,1,1380.1088472191427,-27.103221906683174) translate(93.72222222222217 19.062499999999993)"/><use xlink:href="#al" transform="matrix(1,0,0,1,1380.1088472191427,-27.103221906683174) translate(114.27777777777771 19.062499999999993)"/><use xlink:href="#am" transform="matrix(1,0,0,1,1380.1088472191427,-27.103221906683174) translate(0 43.062499999999986)"/></g><path d="M1656.93 112.42H1940v205.24h-283.07z" stroke="#000" stroke-width="6" fill="#c1e4f7"/><g><use xlink:href="#an" transform="matrix(1,0,0,1,1675.8273249397662,131.32086768914291) translate(0 42.24999999999999)"/><use xlink:href="#r" transform="matrix(1,0,0,1,1675.8273249397662,131.32086768914291) translate(66.99999999999996 42.24999999999999)"/><use xlink:href="#s" transform="matrix(1,0,0,1,1675.8273249397662,131.32086768914291) translate(111.94444444444437 42.24999999999999)"/><use xlink:href="#t" transform="matrix(1,0,0,1,1675.8273249397662,131.32086768914291) translate(9.833333333333332 66.24999999999997)"/><use xlink:href="#ao" transform="matrix(1,0,0,1,1675.8273249397662,131.32086768914291) translate(26.66666666666666 66.24999999999997)"/><use xlink:href="#ap" transform="matrix(1,0,0,1,1675.8273249397662,131.32086768914291) translate(82.94444444444441 66.24999999999997)"/><use xlink:href="#aq" transform="matrix(1,0,0,1,1675.8273249397662,131.32086768914291) translate(103.49999999999996 66.24999999999997)"/><use xlink:href="#ar" transform="matrix(1,0,0,1,1675.8273249397662,131.32086768914291) translate(137.33333333333326 66.24999999999997)"/><use xlink:href="#N" transform="matrix(1,0,0,1,1675.8273249397662,131.32086768914291) translate(181.11111111111103 66.24999999999997)"/><use xlink:href="#as" transform="matrix(1,0,0,1,1675.8273249397662,131.32086768914291) translate(26.66666666666666 90.24999999999997)"/><use xlink:href="#t" transform="matrix(1,0,0,1,1675.8273249397662,131.32086768914291) translate(9.833333333333332 114.24999999999994)"/><use xlink:href="#at" transform="matrix(1,0,0,1,1675.8273249397662,131.32086768914291) translate(26.66666666666666 114.24999999999994)"/><use xlink:href="#au" transform="matrix(1,0,0,1,1675.8273249397662,131.32086768914291) translate(91.49999999999996 114.24999999999994)"/><use xlink:href="#av" transform="matrix(1,0,0,1,1675.8273249397662,131.32086768914291) translate(125.38888888888883 114.24999999999994)"/><use xlink:href="#ap" transform="matrix(1,0,0,1,1675.8273249397662,131.32086768914291) translate(159.22222222222214 114.24999999999994)"/><use xlink:href="#aw" transform="matrix(1,0,0,1,1675.8273249397662,131.32086768914291) translate(179.7777777777777 114.24999999999994)"/><use xlink:href="#ax" transform="matrix(1,0,0,1,1675.8273249397662,131.32086768914291) translate(26.66666666666666 138.24999999999994)"/><use xlink:href="#w" transform="matrix(1,0,0,1,1675.8273249397662,131.32086768914291) translate(68.27777777777774 138.24999999999994)"/><use xlink:href="#ay" transform="matrix(1,0,0,1,1675.8273249397662,131.32086768914291) translate(89.88888888888884 138.24999999999994)"/></g><defs><path d="M52-115c0 93 80 130 150 87l7-35h11l-1 55c-23 7-52 12-83 12C60 4 19-37 15-115c-5-113 97-141 201-114l1 51h-12l-5-30c-15-9-39-16-62-16-66 0-86 41-86 109" id="az"/><path d="M126-119c3-38-42-31-69-25v132l23 4v8H7v-8l21-4v-226l-24-4v-8h53l-1 98c31-22 99-31 99 31v109c7 3 23-1 20 12h-71v-8l22-4v-107" id="aA"/><path d="M32-163c41-10 102-14 102 39v112c8 3 24-2 21 12h-45l-4-17C83 13 3 13 13-46c-2-50 45-50 92-51 4-36-5-70-42-56-6 2-12 4-16 6-4 7 0 23-15 20v-36zM42-47c0 41 41 33 63 22v-59c-34 1-63-1-63 37" id="aB"/><path d="M65-12l28 4v8H7v-8l28-4v-226l-28-4v-8h58v238" id="aC"/><path d="M84-170c49 0 66 33 63 87H46c-8 60 38 80 95 63v10C128-2 108 4 88 4 34 4 14-29 14-84c-1-54 22-86 70-86zm33 73c12-57-57-82-69-24-1 7-2 15-2 24h71" id="aD"/><path d="M125-118c4-37-41-34-68-26v132l23 4v8H8C5-13 21-9 28-12v-141c-7-3-23 1-20-12h47l2 13c31-23 98-29 98 31v109c7 3 23-1 20 12h-72v-8l22-4v-106" id="aE"/><path d="M141-152c28 39 5 97-54 97-9 0-20-2-27-3L49-35c29 22 130-14 124 52-4 45-38 57-88 61C21 83-8 26 45-2 33-6 22-15 21-31l28-31c-19-9-28-26-28-51-2-51 53-65 100-52l38-20 7 8zM85 64c35 0 61-11 61-42 0-35-57-17-89-21-9 8-16 19-17 34 0 25 19 29 45 29zM52-113c1 26 7 46 35 44 28-1 34-16 35-44 0-26-6-43-34-43s-36 17-36 43" id="aF"/><path d="M41-130c7 48 86 23 86 84 0 56-69 57-112 41v-40c20 0 9 29 31 31 35 19 77-26 41-50-27-18-72-13-72-59 0-50 58-52 100-41v36c-19 1-8-25-28-25-21-7-50-1-46 23" id="aG"/><g id="a"><use transform="matrix(0.055555555555555525,0,0,0.055555555555555525,0,0)" xlink:href="#az"/><use transform="matrix(0.055555555555555525,0,0,0.055555555555555525,13.333333333333325,0)" xlink:href="#aA"/><use transform="matrix(0.055555555555555525,0,0,0.055555555555555525,23.33333333333332,0)" xlink:href="#aB"/><use transform="matrix(0.055555555555555525,0,0,0.055555555555555525,32.16666666666665,0)" xlink:href="#aC"/><use transform="matrix(0.055555555555555525,0,0,0.055555555555555525,37.7222222222222,0)" xlink:href="#aC"/><use transform="matrix(0.055555555555555525,0,0,0.055555555555555525,43.27777777777775,0)" xlink:href="#aD"/><use transform="matrix(0.055555555555555525,0,0,0.055555555555555525,52.11111111111108,0)" xlink:href="#aE"/><use transform="matrix(0.055555555555555525,0,0,0.055555555555555525,62.11111111111108,0)" xlink:href="#aF"/><use transform="matrix(0.055555555555555525,0,0,0.055555555555555525,72.11111111111107,0)" xlink:href="#aD"/><use transform="matrix(0.055555555555555525,0,0,0.055555555555555525,80.9444444444444,0)" xlink:href="#aG"/></g><path d="M47-200c-23 0-25-39 0-38 13 0 18 7 20 19-1 11-8 19-20 19zM65-12l28 4v8H8v-8l28-4v-141l-24-4v-8h53v153" id="aH"/><g id="b"><use transform="matrix(0.055555555555555525,0,0,0.055555555555555525,0,0)" xlink:href="#aH"/><use transform="matrix(0.055555555555555525,0,0,0.055555555555555525,5.555555555555553,0)" xlink:href="#aE"/></g><path d="M57-145c16-10 35-24 60-25v45c-19 1-8-30-40-17l-20 6v124l29 4v8H7v-8l21-4v-141c-8-3-24 2-21-12h48" id="aI"/><path d="M45-84c0 64 52 80 104 63 1 25-30 25-55 25-56 0-80-32-80-88 0-76 62-98 131-80v46h-10c-5-15-4-31-23-35-47-10-67 21-67 69" id="aJ"/><path d="M164-154L98 4H85L17-153c-7-3-20 0-17-12h77v8l-26 4L99-38l46-115-26-4v-8h61v8" id="aK"/><g id="c"><use transform="matrix(0.055555555555555525,0,0,0.055555555555555525,0,0)" xlink:href="#aI"/><use transform="matrix(0.055555555555555525,0,0,0.055555555555555525,6.611111111111107,0)" xlink:href="#aD"/><use transform="matrix(0.055555555555555525,0,0,0.055555555555555525,15.444444444444436,0)" xlink:href="#aJ"/><use transform="matrix(0.055555555555555525,0,0,0.055555555555555525,24.277777777777764,0)" xlink:href="#aD"/><use transform="matrix(0.055555555555555525,0,0,0.055555555555555525,33.11111111111109,0)" xlink:href="#aH"/><use transform="matrix(0.055555555555555525,0,0,0.055555555555555525,38.66666666666664,0)" xlink:href="#aK"/><use transform="matrix(0.055555555555555525,0,0,0.055555555555555525,48.666666666666636,0)" xlink:href="#aH"/><use transform="matrix(0.055555555555555525,0,0,0.055555555555555525,54.222222222222186,0)" xlink:href="#aE"/><use transform="matrix(0.055555555555555525,0,0,0.055555555555555525,64.22222222222219,0)" xlink:href="#aF"/></g><path d="M124-13C89 8 26 15 26-45v-108c-8-3-24 2-21-12h50v118c-3 37 42 32 69 25v-131l-25-4v-8h54v153c8 3 24-2 21 12h-48" id="aL"/><path d="M54-38c-1 25 24 26 44 20v12C71 10 25 9 25-35v-115H4c-2-14 14-10 21-15l18-38h11v38h38v15H54v112" id="aM"/><g id="d"><use transform="matrix(0.055555555555555525,0,0,0.055555555555555525,0,0)" xlink:href="#aI"/><use transform="matrix(0.055555555555555525,0,0,0.055555555555555525,6.611111111111107,0)" xlink:href="#aD"/><use transform="matrix(0.055555555555555525,0,0,0.055555555555555525,15.444444444444436,0)" xlink:href="#aG"/><use transform="matrix(0.055555555555555525,0,0,0.055555555555555525,23.222222222222207,0)" xlink:href="#aL"/><use transform="matrix(0.055555555555555525,0,0,0.055555555555555525,33.2222222222222,0)" xlink:href="#aC"/><use transform="matrix(0.055555555555555525,0,0,0.055555555555555525,38.77777777777775,0)" xlink:href="#aM"/><use transform="matrix(0.055555555555555525,0,0,0.055555555555555525,44.3333333333333,0)" xlink:href="#aG"/></g><path d="M76-116c0 86 71 126 135 84l6-39h16l-1 60C138 21 18 1 18-115c0-117 106-141 210-112l1 57h-16l-5-34c-13-9-32-16-54-16-60 0-78 42-78 104" id="aN"/><path d="M90-170c54-1 76 32 76 87 1 56-23 87-77 87-53 0-75-32-75-87s23-86 76-87zM89-14c28-2 26-38 26-69s3-69-26-69c-27 0-24 39-24 69s-3 66 24 69" id="aO"/><path d="M9 41c2-18 18-26 32-33C29 1 16-9 16-28l29-33c-21-9-31-25-31-51-2-56 61-65 111-53l39-20c13 12-9 24-14 36 35 54-17 114-90 92-17 34 27 28 56 28 36-1 61 12 60 46-2 46-39 62-91 62-38 0-71-6-76-38zm35-3c6 35 97 29 94-9-2-28-50-14-78-17-8 7-15 14-16 26zm20-150c0 22 4 40 23 40 20 0 24-17 24-40 0-24-4-40-24-40-19 0-23 17-23 40" id="aP"/><path d="M127-114c3-31-26-38-50-25v123l15 4V0H10v-12l16-4v-133l-16-5v-11h64l2 14c31-23 102-32 102 30v105l17 4V0h-82v-12l14-4v-98" id="aQ"/><path d="M77-16l18 4V0H8v-12l18-4v-133l-17-5v-11h68v149zM51-196c-16 0-27-10-27-27s10-27 27-27 27 11 27 27c0 17-10 27-27 27" id="aR"/><path d="M78-41c-2 24 21 26 40 20C122 3 98 2 77 4 5 10 32-84 27-147H6v-11l25-7 21-38h26v38h35v18H78v106" id="aS"/><path d="M168-150L102 4H81L12-149c-7-2-15-4-12-16h85v11l-20 5 42 94 38-94-19-5v-11h54v11" id="aT"/><path d="M12-83c0-55 22-85 75-86 52-1 66 33 63 88H64c-1 37 6 64 44 63 14 0 28-4 39-6 3 28-28 25-55 27-57 4-80-31-80-86zm90-17c2-26 0-63-27-48-10 9-11 28-11 48h38" id="aU"/><g id="e"><use transform="matrix(0.07407407407407407,0,0,0.07407407407407407,0,0)" xlink:href="#aN"/><use transform="matrix(0.07407407407407407,0,0,0.07407407407407407,19.185185185185183,0)" xlink:href="#aO"/><use transform="matrix(0.07407407407407407,0,0,0.07407407407407407,32.51851851851852,0)" xlink:href="#aP"/><use transform="matrix(0.07407407407407407,0,0,0.07407407407407407,45.85185185185185,0)" xlink:href="#aQ"/><use transform="matrix(0.07407407407407407,0,0,0.07407407407407407,60.66666666666666,0)" xlink:href="#aR"/><use transform="matrix(0.07407407407407407,0,0,0.07407407407407407,68.07407407407406,0)" xlink:href="#aS"/><use transform="matrix(0.07407407407407407,0,0,0.07407407407407407,76.88888888888887,0)" xlink:href="#aR"/><use transform="matrix(0.07407407407407407,0,0,0.07407407407407407,84.29629629629628,0)" xlink:href="#aT"/><use transform="matrix(0.07407407407407407,0,0,0.07407407407407407,97.6296296296296,0)" xlink:href="#aU"/></g><path d="M92-134c39 3 62-4 62-44 0-37-25-40-62-38v82zm0 115c49 5 80-2 80-50 0-44-34-49-80-46v96zm138-50C230 26 101-4 6 0v-13l30-5v-200l-30-5v-13c79 7 206-26 206 54 0 33-22 49-49 56 39 3 67 18 67 57" id="aV"/><path d="M31-163c51-5 127-20 127 40v107l17 4V0h-61l-4-13C82 13 12 12 12-46c0-51 46-52 95-53 9-45-22-69-57-44l-7 20H31v-40zM62-47c0 30 26 34 45 23v-59c-28 0-45 6-45 36" id="aW"/><path d="M132-132c-21 0-37 9-50 16v100l26 4V0H10v-12l21-4v-133l-21-5v-11h69l2 34c17-18 35-41 71-40v61c-17 3-14-14-20-22" id="aX"/><path d="M102-142c-14-17-68-15-54 18 24 26 83 17 83 72 0 62-72 62-120 47v-45h12c4 23 16 37 43 37 35 0 39-37 9-46-31-9-65-19-64-61 0-52 59-55 108-45v43h-11" id="aY"/><g id="f"><use transform="matrix(0.07407407407407407,0,0,0.07407407407407407,0,0)" xlink:href="#aV"/><use transform="matrix(0.07407407407407407,0,0,0.07407407407407407,17.77777777777778,0)" xlink:href="#aW"/><use transform="matrix(0.07407407407407407,0,0,0.07407407407407407,31.11111111111111,0)" xlink:href="#aX"/><use transform="matrix(0.07407407407407407,0,0,0.07407407407407407,42.888888888888886,0)" xlink:href="#aX"/><use transform="matrix(0.07407407407407407,0,0,0.07407407407407407,54.666666666666664,0)" xlink:href="#aR"/><use transform="matrix(0.07407407407407407,0,0,0.07407407407407407,62.07407407407407,0)" xlink:href="#aU"/><use transform="matrix(0.07407407407407407,0,0,0.07407407407407407,73.85185185185185,0)" xlink:href="#aX"/><use transform="matrix(0.07407407407407407,0,0,0.07407407407407407,85.62962962962962,0)" xlink:href="#aY"/></g><path d="M92-101v83l39 5V0H8v-13l28-5v-200l-30-5v-13h197v64h-17l-5-42c-27-3-59-2-89-2v96h57l6-30h15v80h-15l-6-31H92" id="aZ"/><path d="M109-18c15 0 31-2 42-6v14c-11 9-31 13-51 13-59 0-86-28-88-86-3-75 66-101 135-80v48h-13c-3-20-7-40-34-37-51 7-55 138 9 134" id="ba"/><path d="M76-16l18 4V0H7v-12l18-4v-218l-17-4v-12h68v234" id="bb"/><g id="g"><use transform="matrix(0.07407407407407407,0,0,0.07407407407407407,0,0)" xlink:href="#aZ"/><use transform="matrix(0.07407407407407407,0,0,0.07407407407407407,16.22222222222222,0)" xlink:href="#aR"/><use transform="matrix(0.07407407407407407,0,0,0.07407407407407407,23.629629629629623,0)" xlink:href="#aQ"/><use transform="matrix(0.07407407407407407,0,0,0.07407407407407407,38.44444444444444,0)" xlink:href="#aW"/><use transform="matrix(0.07407407407407407,0,0,0.07407407407407407,51.77777777777777,0)" xlink:href="#aQ"/><use transform="matrix(0.07407407407407407,0,0,0.07407407407407407,66.59259259259258,0)" xlink:href="#ba"/><use transform="matrix(0.07407407407407407,0,0,0.07407407407407407,78.37037037037035,0)" xlink:href="#aR"/><use transform="matrix(0.07407407407407407,0,0,0.07407407407407407,85.77777777777776,0)" xlink:href="#aW"/><use transform="matrix(0.07407407407407407,0,0,0.07407407407407407,99.11111111111109,0)" xlink:href="#bb"/></g><path d="M185-72C185 13 82 14 19-9v-63h16c2 37 21 58 61 58 46 0 69-51 31-71-42-23-106-23-106-90 0-69 87-70 148-56v56h-16l-7-32c-26-25-110-13-82 35 39 34 121 26 121 100" id="bc"/><path d="M73-51c-3 31 27 38 51 25v-123l-16-5v-11h66v149l17 4V0h-65l-2-14C94 9 22 18 22-44v-105l-17-5v-11h68v114" id="bd"/><g id="h"><use transform="matrix(0.07407407407407407,0,0,0.07407407407407407,0,0)" xlink:href="#bc"/><use transform="matrix(0.07407407407407407,0,0,0.07407407407407407,14.814814814814813,0)" xlink:href="#aS"/><use transform="matrix(0.07407407407407407,0,0,0.07407407407407407,23.629629629629623,0)" xlink:href="#aX"/><use transform="matrix(0.07407407407407407,0,0,0.07407407407407407,35.407407407407405,0)" xlink:href="#bd"/><use transform="matrix(0.07407407407407407,0,0,0.07407407407407407,50.222222222222214,0)" xlink:href="#ba"/><use transform="matrix(0.07407407407407407,0,0,0.07407407407407407,62,0)" xlink:href="#aS"/><use transform="matrix(0.07407407407407407,0,0,0.07407407407407407,70.81481481481481,0)" xlink:href="#bd"/><use transform="matrix(0.07407407407407407,0,0,0.07407407407407407,85.62962962962962,0)" xlink:href="#aX"/><use transform="matrix(0.07407407407407407,0,0,0.07407407407407407,97.40740740740739,0)" xlink:href="#aW"/><use transform="matrix(0.07407407407407407,0,0,0.07407407407407407,110.74074074074072,0)" xlink:href="#bb"/></g><path d="M111-226l-36 4v207c33-1 73 2 101-4l11-49h11l-3 68H10v-9l31-5v-208l-31-4v-10h101v10" id="be"/><path d="M60-80l68-73c-7-3-20 0-17-12h58c3 13-13 9-20 12l-47 48 60 93c7 3 21-1 18 12h-68c-3-12 9-9 15-12L82-83 60-60v48c7 3 21-1 18 12H10v-8l21-4v-226l-24-4v-8h53v170" id="bf"/><g id="i"><use transform="matrix(0.05679012345679009,0,0,0.05679012345679009,0,0)" xlink:href="#be"/><use transform="matrix(0.05679012345679009,0,0,0.05679012345679009,12.43703703703703,0)" xlink:href="#aB"/><use transform="matrix(0.05679012345679009,0,0,0.05679012345679009,21.466666666666654,0)" xlink:href="#aJ"/><use transform="matrix(0.05679012345679009,0,0,0.05679012345679009,30.49629629629628,0)" xlink:href="#bf"/></g><path d="M90-170c52 0 76 32 76 87 0 54-24 87-77 87-51 0-75-34-75-87 0-54 24-87 76-87zM89-10c39 0 46-35 46-73 0-39-7-73-46-73-39 1-44 34-44 73s6 72 44 73" id="bg"/><path d="M103-236c-39-15-35 32-34 71h44v15H69v136l35 6v8H15v-8l25-6v-136H11v-9l29-7c-6-59 23-100 80-84v36c-15 2-12-14-17-22" id="bh"/><g id="j"><use transform="matrix(0.05679012345679009,0,0,0.05679012345679009,0,0)" xlink:href="#bg"/><use transform="matrix(0.05679012345679009,0,0,0.05679012345679009,10.222222222222216,0)" xlink:href="#bh"/></g><path d="M240-154L185 4h-14l-41-109L90 4H77L20-153c-7-3-23 1-20-12h79v8l-27 4L91-41l40-108h14l40 109 38-113-28-4v-8h63v8" id="bi"/><path d="M13-81c0-71 46-101 114-85l-1-72-28-4v-8h57v238c8 3 24-2 21 12h-47l-2-12C80 23 13-1 13-81zm77-74c-37 1-44 33-45 74 0 38 9 66 45 66 14 0 27-3 36-7v-130c-10-1-24-3-36-3" id="bj"/><g id="k"><use transform="matrix(0.05679012345679009,0,0,0.05679012345679009,0,0)" xlink:href="#bf"/><use transform="matrix(0.05679012345679009,0,0,0.05679012345679009,10.222222222222216,0)" xlink:href="#aE"/><use transform="matrix(0.05679012345679009,0,0,0.05679012345679009,20.444444444444432,0)" xlink:href="#bg"/><use transform="matrix(0.05679012345679009,0,0,0.05679012345679009,30.66666666666665,0)" xlink:href="#bi"/><use transform="matrix(0.05679012345679009,0,0,0.05679012345679009,45.37530864197528,0)" xlink:href="#aC"/><use transform="matrix(0.05679012345679009,0,0,0.05679012345679009,51.05432098765429,0)" xlink:href="#aD"/><use transform="matrix(0.05679012345679009,0,0,0.05679012345679009,60.08395061728392,0)" xlink:href="#bj"/><use transform="matrix(0.05679012345679009,0,0,0.05679012345679009,70.30617283950613,0)" xlink:href="#aF"/><use transform="matrix(0.05679012345679009,0,0,0.05679012345679009,80.52839506172835,0)" xlink:href="#aD"/></g><path d="M53-14c58 12 82-15 82-73 0-52-35-77-82-58v131zM89 4C64 4 42-2 24-9v-229l-24-4v-8h53l-1 94c48-33 114-4 114 69 0 57-23 91-77 91" id="bk"/><g id="l"><use transform="matrix(0.05679012345679009,0,0,0.05679012345679009,0,0)" xlink:href="#aB"/><use transform="matrix(0.05679012345679009,0,0,0.05679012345679009,9.029629629629625,0)" xlink:href="#bk"/><use transform="matrix(0.05679012345679009,0,0,0.05679012345679009,19.25185185185184,0)" xlink:href="#bg"/><use transform="matrix(0.05679012345679009,0,0,0.05679012345679009,29.474074074074057,0)" xlink:href="#aL"/><use transform="matrix(0.05679012345679009,0,0,0.05679012345679009,39.69629629629627,0)" xlink:href="#aM"/></g><g id="m"><use transform="matrix(0.05679012345679009,0,0,0.05679012345679009,0,0)" xlink:href="#aG"/><use transform="matrix(0.05679012345679009,0,0,0.05679012345679009,7.950617283950613,0)" xlink:href="#aJ"/><use transform="matrix(0.05679012345679009,0,0,0.05679012345679009,16.98024691358024,0)" xlink:href="#aI"/><use transform="matrix(0.05679012345679009,0,0,0.05679012345679009,23.73827160493826,0)" xlink:href="#aD"/><use transform="matrix(0.05679012345679009,0,0,0.05679012345679009,32.76790123456789,0)" xlink:href="#aD"/><use transform="matrix(0.05679012345679009,0,0,0.05679012345679009,41.79753086419751,0)" xlink:href="#aE"/><use transform="matrix(0.05679012345679009,0,0,0.05679012345679009,52.019753086419726,0)" xlink:href="#aH"/><use transform="matrix(0.05679012345679009,0,0,0.05679012345679009,57.69876543209874,0)" xlink:href="#aE"/><use transform="matrix(0.05679012345679009,0,0,0.05679012345679009,67.92098765432095,0)" xlink:href="#aF"/></g><g id="n"><use transform="matrix(0.05679012345679009,0,0,0.05679012345679009,0,0)" xlink:href="#aB"/><use transform="matrix(0.05679012345679009,0,0,0.05679012345679009,9.029629629629625,0)" xlink:href="#aE"/><use transform="matrix(0.05679012345679009,0,0,0.05679012345679009,19.25185185185184,0)" xlink:href="#bj"/></g><g id="o"><use transform="matrix(0.05679012345679009,0,0,0.05679012345679009,0,0)" xlink:href="#aJ"/><use transform="matrix(0.05679012345679009,0,0,0.05679012345679009,9.029629629629625,0)" xlink:href="#aD"/><use transform="matrix(0.05679012345679009,0,0,0.05679012345679009,18.05925925925925,0)" xlink:href="#aI"/><use transform="matrix(0.05679012345679009,0,0,0.05679012345679009,24.81728395061727,0)" xlink:href="#aK"/><use transform="matrix(0.05679012345679009,0,0,0.05679012345679009,35.03950617283949,0)" xlink:href="#aH"/><use transform="matrix(0.05679012345679009,0,0,0.05679012345679009,40.71851851851849,0)" xlink:href="#aJ"/><use transform="matrix(0.05679012345679009,0,0,0.05679012345679009,49.74814814814812,0)" xlink:href="#aB"/><use transform="matrix(0.05679012345679009,0,0,0.05679012345679009,58.77777777777774,0)" xlink:href="#aC"/></g><g id="p"><use transform="matrix(0.05679012345679009,0,0,0.05679012345679009,0,0)" xlink:href="#aJ"/><use transform="matrix(0.05679012345679009,0,0,0.05679012345679009,9.029629629629625,0)" xlink:href="#aB"/><use transform="matrix(0.05679012345679009,0,0,0.05679012345679009,18.05925925925925,0)" xlink:href="#aE"/><use transform="matrix(0.05679012345679009,0,0,0.05679012345679009,28.281481481481464,0)" xlink:href="#aJ"/><use transform="matrix(0.05679012345679009,0,0,0.05679012345679009,37.31111111111109,0)" xlink:href="#aD"/><use transform="matrix(0.05679012345679009,0,0,0.05679012345679009,46.34074074074071,0)" xlink:href="#aI"/></g><path d="M75-17c87 13 134-18 134-103 0-78-51-106-134-100v203zm171-102C246 5 139 7 10 0v-9l31-5v-208l-31-4v-10h107c82 0 129 35 129 117" id="bl"/><g id="q"><use transform="matrix(0.055555555555555525,0,0,0.055555555555555525,0,0)" xlink:href="#bl"/><use transform="matrix(0.055555555555555525,0,0,0.055555555555555525,14.38888888888888,0)" xlink:href="#aH"/><use transform="matrix(0.055555555555555525,0,0,0.055555555555555525,19.944444444444432,0)" xlink:href="#aI"/><use transform="matrix(0.055555555555555525,0,0,0.055555555555555525,26.55555555555554,0)" xlink:href="#aD"/><use transform="matrix(0.055555555555555525,0,0,0.055555555555555525,35.38888888888887,0)" xlink:href="#aJ"/><use transform="matrix(0.055555555555555525,0,0,0.055555555555555525,44.2222222222222,0)" xlink:href="#aM"/></g><g id="r"><use transform="matrix(0.055555555555555525,0,0,0.055555555555555525,0,0)" xlink:href="#aJ"/><use transform="matrix(0.055555555555555525,0,0,0.055555555555555525,8.833333333333329,0)" xlink:href="#bg"/><use transform="matrix(0.055555555555555525,0,0,0.055555555555555525,18.83333333333332,0)" xlink:href="#aG"/><use transform="matrix(0.055555555555555525,0,0,0.055555555555555525,26.611111111111093,0)" xlink:href="#aM"/><use transform="matrix(0.055555555555555525,0,0,0.055555555555555525,32.16666666666664,0)" xlink:href="#aG"/></g><path d="M13-71v-27h94v27H13" id="bm"/><use transform="matrix(0.055555555555555525,0,0,0.055555555555555525,0,0)" xlink:href="#bm" id="s"/><path d="M63-162c27 0 43 18 43 43S88-76 63-76s-43-18-43-43 16-43 43-43" id="bn"/><use transform="matrix(0.055555555555555525,0,0,0.055555555555555525,0,0)" xlink:href="#bn" id="t"/><path d="M152 0h-7L59-203v189l32 5v9H10v-9l31-5v-208l-31-4v-10h72l76 180 84-180h68v10l-31 4v208l31 5v9h-96v-9l32-5v-189" id="bo"/><g id="u"><use transform="matrix(0.055555555555555525,0,0,0.055555555555555525,0,0)" xlink:href="#bo"/><use transform="matrix(0.055555555555555525,0,0,0.055555555555555525,17.777777777777768,0)" xlink:href="#aB"/><use transform="matrix(0.055555555555555525,0,0,0.055555555555555525,26.611111111111097,0)" xlink:href="#bf"/><use transform="matrix(0.055555555555555525,0,0,0.055555555555555525,36.61111111111109,0)" xlink:href="#aH"/><use transform="matrix(0.055555555555555525,0,0,0.055555555555555525,42.16666666666664,0)" xlink:href="#aE"/><use transform="matrix(0.055555555555555525,0,0,0.055555555555555525,52.166666666666636,0)" xlink:href="#aF"/></g><g id="v"><use transform="matrix(0.055555555555555525,0,0,0.055555555555555525,0,0)" xlink:href="#bg"/><use transform="matrix(0.055555555555555525,0,0,0.055555555555555525,9.999999999999995,0)" xlink:href="#aL"/><use transform="matrix(0.055555555555555525,0,0,0.055555555555555525,19.99999999999999,0)" xlink:href="#aM"/></g><g id="w"><use transform="matrix(0.055555555555555525,0,0,0.055555555555555525,0,0)" xlink:href="#bg"/><use transform="matrix(0.055555555555555525,0,0,0.055555555555555525,9.999999999999995,0)" xlink:href="#bh"/></g><path d="M166-85c3 67-44 102-111 85l1 64 29 4v9H6v-9l21-4v-217c-7-3-22 1-19-12h46l1 9c11-8 26-14 45-14 47 2 64 36 66 85zM56-13c53 14 83-14 78-72 7-53-33-79-78-60v132" id="bp"/><g id="x"><use transform="matrix(0.055555555555555525,0,0,0.055555555555555525,0,0)" xlink:href="#bp"/><use transform="matrix(0.055555555555555525,0,0,0.055555555555555525,9.999999999999995,0)" xlink:href="#bg"/><use transform="matrix(0.055555555555555525,0,0,0.055555555555555525,19.99999999999999,0)" xlink:href="#aJ"/><use transform="matrix(0.055555555555555525,0,0,0.055555555555555525,28.833333333333318,0)" xlink:href="#bf"/><use transform="matrix(0.055555555555555525,0,0,0.055555555555555525,38.833333333333314,0)" xlink:href="#aD"/><use transform="matrix(0.055555555555555525,0,0,0.055555555555555525,47.66666666666664,0)" xlink:href="#aM"/></g><path d="M161-154L85 37C75 66 49 86 8 75V39c18-2 6 24 29 21 30-4 38-32 47-58L21-153c-7-3-20 0-17-12h77v8l-26 4 45 116 43-116-26-4v-8h62v8" id="bq"/><path d="M126-118c4-37-42-32-68-25v131l24 4v8H8C5-13 21-9 28-12v-141c-7-3-23 1-20-12h48l1 13c22-15 77-30 92 2 32-22 104-36 104 29v109c8 3 24-2 21 12h-75v-8l25-4v-106c3-39-45-31-72-24 7 37 1 88 3 130l25 4v8h-78v-8l24-4v-106" id="br"/><g id="y"><use transform="matrix(0.055555555555555525,0,0,0.055555555555555525,0,0)" xlink:href="#bp"/><use transform="matrix(0.055555555555555525,0,0,0.055555555555555525,9.999999999999995,0)" xlink:href="#aB"/><use transform="matrix(0.055555555555555525,0,0,0.055555555555555525,18.83333333333332,0)" xlink:href="#bq"/><use transform="matrix(0.055555555555555525,0,0,0.055555555555555525,28.833333333333318,0)" xlink:href="#br"/><use transform="matrix(0.055555555555555525,0,0,0.055555555555555525,44.38888888888886,0)" xlink:href="#aD"/><use transform="matrix(0.055555555555555525,0,0,0.055555555555555525,53.222222222222186,0)" xlink:href="#aE"/><use transform="matrix(0.055555555555555525,0,0,0.055555555555555525,63.22222222222217,0)" xlink:href="#aM"/><use transform="matrix(0.055555555555555525,0,0,0.055555555555555525,68.77777777777773,0)" xlink:href="#aG"/></g><path d="M50-37c14 0 21 9 21 21S62 5 50 5C37 5 28-4 28-16s8-21 22-21zm0-132c12 0 21 9 21 21 0 13-9 22-21 22-13 0-22-9-22-22 0-12 9-21 22-21" id="bs"/><g id="z"><use transform="matrix(0.055555555555555525,0,0,0.055555555555555525,0,0)" xlink:href="#bh"/><use transform="matrix(0.055555555555555525,0,0,0.055555555555555525,6.611111111111107,0)" xlink:href="#bg"/><use transform="matrix(0.055555555555555525,0,0,0.055555555555555525,16.6111111111111,0)" xlink:href="#aI"/><use transform="matrix(0.055555555555555525,0,0,0.055555555555555525,23.222222222222207,0)" xlink:href="#bs"/></g><path d="M64-156c23 0 44 21 43 44-1 27-18 44-43 44-23 0-44-17-44-44 0-24 21-44 44-44zm0 74c16 0 30-14 30-30 0-15-15-30-30-30s-30 15-30 30c0 16 14 30 30 30" id="bt"/><use transform="matrix(0.055555555555555525,0,0,0.055555555555555525,0,0)" xlink:href="#bt" id="A"/><g id="B"><use transform="matrix(0.055555555555555525,0,0,0.055555555555555525,0,0)" xlink:href="#bo"/><use transform="matrix(0.055555555555555525,0,0,0.055555555555555525,17.777777777777768,0)" xlink:href="#aD"/><use transform="matrix(0.055555555555555525,0,0,0.055555555555555525,26.611111111111097,0)" xlink:href="#bj"/><use transform="matrix(0.055555555555555525,0,0,0.055555555555555525,36.61111111111109,0)" xlink:href="#aH"/><use transform="matrix(0.055555555555555525,0,0,0.055555555555555525,42.16666666666664,0)" xlink:href="#aJ"/><use transform="matrix(0.055555555555555525,0,0,0.055555555555555525,50.99999999999997,0)" xlink:href="#aH"/><use transform="matrix(0.055555555555555525,0,0,0.055555555555555525,56.55555555555552,0)" xlink:href="#aE"/><use transform="matrix(0.055555555555555525,0,0,0.055555555555555525,66.55555555555551,0)" xlink:href="#aD"/></g><path d="M75-108c48 3 76-12 76-58s-28-57-76-54v112zm111-58c-1 60-46 78-111 74v78l37 5v9H13v-9l28-5v-208l-31-4v-10c81 1 178-14 176 70" id="bu"/><g id="C"><use transform="matrix(0.055555555555555525,0,0,0.055555555555555525,0,0)" xlink:href="#bu"/><use transform="matrix(0.055555555555555525,0,0,0.055555555555555525,11.111111111111105,0)" xlink:href="#aI"/><use transform="matrix(0.055555555555555525,0,0,0.055555555555555525,17.722222222222214,0)" xlink:href="#bg"/><use transform="matrix(0.055555555555555525,0,0,0.055555555555555525,27.722222222222207,0)" xlink:href="#aJ"/><use transform="matrix(0.055555555555555525,0,0,0.055555555555555525,36.555555555555536,0)" xlink:href="#aD"/><use transform="matrix(0.055555555555555525,0,0,0.055555555555555525,45.388888888888864,0)" xlink:href="#bj"/><use transform="matrix(0.055555555555555525,0,0,0.055555555555555525,55.38888888888886,0)" xlink:href="#aL"/><use transform="matrix(0.055555555555555525,0,0,0.055555555555555525,65.38888888888886,0)" xlink:href="#aI"/><use transform="matrix(0.055555555555555525,0,0,0.055555555555555525,71.99999999999997,0)" xlink:href="#aD"/><use transform="matrix(0.055555555555555525,0,0,0.055555555555555525,80.8333333333333,0)" xlink:href="#aG"/></g><path d="M178-68c0 79-95 82-154 59v-54h12c1 35 22 52 60 52 50 0 69-58 33-82-39-24-105-21-105-85 0-67 86-66 142-53v49h-12l-6-29c-31-27-121-7-89 42 28 43 119 24 119 101" id="bv"/><g id="D"><use transform="matrix(0.055555555555555525,0,0,0.055555555555555525,0,0)" xlink:href="#bv"/><use transform="matrix(0.055555555555555525,0,0,0.055555555555555525,11.111111111111105,0)" xlink:href="#aL"/><use transform="matrix(0.055555555555555525,0,0,0.055555555555555525,21.1111111111111,0)" xlink:href="#bp"/><use transform="matrix(0.055555555555555525,0,0,0.055555555555555525,31.111111111111093,0)" xlink:href="#bp"/><use transform="matrix(0.055555555555555525,0,0,0.055555555555555525,41.111111111111086,0)" xlink:href="#aC"/><use transform="matrix(0.055555555555555525,0,0,0.055555555555555525,46.666666666666636,0)" xlink:href="#aH"/><use transform="matrix(0.055555555555555525,0,0,0.055555555555555525,52.222222222222186,0)" xlink:href="#aD"/><use transform="matrix(0.055555555555555525,0,0,0.055555555555555525,61.05555555555551,0)" xlink:href="#aG"/></g><g id="E"><use transform="matrix(0.055555555555555525,0,0,0.055555555555555525,0,0)" xlink:href="#bh"/><use transform="matrix(0.055555555555555525,0,0,0.055555555555555525,6.611111111111107,0)" xlink:href="#bg"/><use transform="matrix(0.055555555555555525,0,0,0.055555555555555525,16.6111111111111,0)" xlink:href="#aI"/></g><g id="F"><use transform="matrix(0.055555555555555525,0,0,0.055555555555555525,0,0)" xlink:href="#bp"/><use transform="matrix(0.055555555555555525,0,0,0.055555555555555525,9.999999999999995,0)" xlink:href="#aI"/><use transform="matrix(0.055555555555555525,0,0,0.055555555555555525,16.6111111111111,0)" xlink:href="#bg"/><use transform="matrix(0.055555555555555525,0,0,0.055555555555555525,26.611111111111093,0)" xlink:href="#aJ"/><use transform="matrix(0.055555555555555525,0,0,0.055555555555555525,35.44444444444442,0)" xlink:href="#aD"/><use transform="matrix(0.055555555555555525,0,0,0.055555555555555525,44.27777777777775,0)" xlink:href="#bj"/><use transform="matrix(0.055555555555555525,0,0,0.055555555555555525,54.27777777777774,0)" xlink:href="#aL"/><use transform="matrix(0.055555555555555525,0,0,0.055555555555555525,64.27777777777774,0)" xlink:href="#aI"/><use transform="matrix(0.055555555555555525,0,0,0.055555555555555525,70.88888888888886,0)" xlink:href="#aD"/><use transform="matrix(0.055555555555555525,0,0,0.055555555555555525,79.72222222222219,0)" xlink:href="#aG"/></g><g id="G"><use transform="matrix(0.055555555555555525,0,0,0.055555555555555525,0,0)" xlink:href="#be"/><use transform="matrix(0.055555555555555525,0,0,0.055555555555555525,12.16666666666666,0)" xlink:href="#aB"/><use transform="matrix(0.055555555555555525,0,0,0.055555555555555525,20.99999999999999,0)" xlink:href="#aJ"/><use transform="matrix(0.055555555555555525,0,0,0.055555555555555525,29.833333333333318,0)" xlink:href="#bf"/></g><g id="H"><use transform="matrix(0.055555555555555525,0,0,0.055555555555555525,0,0)" xlink:href="#aL"/><use transform="matrix(0.055555555555555525,0,0,0.055555555555555525,9.999999999999995,0)" xlink:href="#aE"/><use transform="matrix(0.055555555555555525,0,0,0.055555555555555525,19.99999999999999,0)" xlink:href="#bj"/><use transform="matrix(0.055555555555555525,0,0,0.055555555555555525,29.999999999999982,0)" xlink:href="#aD"/><use transform="matrix(0.055555555555555525,0,0,0.055555555555555525,38.833333333333314,0)" xlink:href="#aI"/><use transform="matrix(0.055555555555555525,0,0,0.055555555555555525,45.44444444444442,0)" xlink:href="#aG"/><use transform="matrix(0.055555555555555525,0,0,0.055555555555555525,53.22222222222219,0)" xlink:href="#aM"/><use transform="matrix(0.055555555555555525,0,0,0.055555555555555525,58.77777777777774,0)" xlink:href="#aB"/><use transform="matrix(0.055555555555555525,0,0,0.055555555555555525,67.61111111111107,0)" xlink:href="#aE"/><use transform="matrix(0.055555555555555525,0,0,0.055555555555555525,77.61111111111107,0)" xlink:href="#bj"/><use transform="matrix(0.055555555555555525,0,0,0.055555555555555525,87.61111111111107,0)" xlink:href="#aH"/><use transform="matrix(0.055555555555555525,0,0,0.055555555555555525,93.16666666666663,0)" xlink:href="#aE"/><use transform="matrix(0.055555555555555525,0,0,0.055555555555555525,103.16666666666663,0)" xlink:href="#aF"/></g><g id="I"><use transform="matrix(0.055555555555555525,0,0,0.055555555555555525,0,0)" xlink:href="#bg"/><use transform="matrix(0.055555555555555525,0,0,0.055555555555555525,9.999999999999995,0)" xlink:href="#bh"/></g><g id="J"><use transform="matrix(0.055555555555555525,0,0,0.055555555555555525,0,0)" xlink:href="#aG"/><use transform="matrix(0.055555555555555525,0,0,0.055555555555555525,7.777777777777773,0)" xlink:href="#aJ"/><use transform="matrix(0.055555555555555525,0,0,0.055555555555555525,16.6111111111111,0)" xlink:href="#aI"/><use transform="matrix(0.055555555555555525,0,0,0.055555555555555525,23.222222222222207,0)" xlink:href="#aD"/><use transform="matrix(0.055555555555555525,0,0,0.055555555555555525,32.055555555555536,0)" xlink:href="#aD"/><use transform="matrix(0.055555555555555525,0,0,0.055555555555555525,40.888888888888864,0)" xlink:href="#aE"/><use transform="matrix(0.055555555555555525,0,0,0.055555555555555525,50.88888888888886,0)" xlink:href="#aH"/><use transform="matrix(0.055555555555555525,0,0,0.055555555555555525,56.44444444444441,0)" xlink:href="#aE"/><use transform="matrix(0.055555555555555525,0,0,0.055555555555555525,66.4444444444444,0)" xlink:href="#aF"/></g><g id="K"><use transform="matrix(0.055555555555555525,0,0,0.055555555555555525,0,0)" xlink:href="#aI"/><use transform="matrix(0.055555555555555525,0,0,0.055555555555555525,6.611111111111107,0)" xlink:href="#aD"/><use transform="matrix(0.055555555555555525,0,0,0.055555555555555525,15.444444444444436,0)" xlink:href="#aG"/><use transform="matrix(0.055555555555555525,0,0,0.055555555555555525,23.222222222222207,0)" xlink:href="#aL"/><use transform="matrix(0.055555555555555525,0,0,0.055555555555555525,33.2222222222222,0)" xlink:href="#aC"/><use transform="matrix(0.055555555555555525,0,0,0.055555555555555525,38.77777777777775,0)" xlink:href="#aM"/><use transform="matrix(0.055555555555555525,0,0,0.055555555555555525,44.3333333333333,0)" xlink:href="#aG"/></g><g id="L"><use transform="matrix(0.055555555555555525,0,0,0.055555555555555525,0,0)" xlink:href="#bg"/><use transform="matrix(0.055555555555555525,0,0,0.055555555555555525,9.999999999999995,0)" xlink:href="#aI"/></g><g id="M"><use transform="matrix(0.055555555555555525,0,0,0.055555555555555525,0,0)" xlink:href="#aM"/><use transform="matrix(0.055555555555555525,0,0,0.055555555555555525,5.555555555555553,0)" xlink:href="#aI"/><use transform="matrix(0.055555555555555525,0,0,0.055555555555555525,12.16666666666666,0)" xlink:href="#aD"/><use transform="matrix(0.055555555555555525,0,0,0.055555555555555525,20.99999999999999,0)" xlink:href="#aB"/><use transform="matrix(0.055555555555555525,0,0,0.055555555555555525,29.833333333333318,0)" xlink:href="#aM"/><use transform="matrix(0.055555555555555525,0,0,0.055555555555555525,35.38888888888887,0)" xlink:href="#br"/><use transform="matrix(0.055555555555555525,0,0,0.055555555555555525,50.944444444444414,0)" xlink:href="#aD"/><use transform="matrix(0.055555555555555525,0,0,0.055555555555555525,59.77777777777774,0)" xlink:href="#aE"/><use transform="matrix(0.055555555555555525,0,0,0.055555555555555525,69.77777777777774,0)" xlink:href="#aM"/></g><g id="N"><use transform="matrix(0.055555555555555525,0,0,0.055555555555555525,0,0)" xlink:href="#aM"/><use transform="matrix(0.055555555555555525,0,0,0.055555555555555525,5.555555555555553,0)" xlink:href="#aA"/><use transform="matrix(0.055555555555555525,0,0,0.055555555555555525,15.555555555555546,0)" xlink:href="#aD"/></g><g id="O"><use transform="matrix(0.055555555555555525,0,0,0.055555555555555525,0,0)" xlink:href="#bh"/><use transform="matrix(0.055555555555555525,0,0,0.055555555555555525,6.611111111111107,0)" xlink:href="#bg"/><use transform="matrix(0.055555555555555525,0,0,0.055555555555555525,16.6111111111111,0)" xlink:href="#aC"/><use transform="matrix(0.055555555555555525,0,0,0.055555555555555525,22.166666666666654,0)" xlink:href="#aC"/><use transform="matrix(0.055555555555555525,0,0,0.055555555555555525,27.722222222222207,0)" xlink:href="#bg"/><use transform="matrix(0.055555555555555525,0,0,0.055555555555555525,37.7222222222222,0)" xlink:href="#bi"/><use transform="matrix(0.055555555555555525,0,0,0.055555555555555525,52.11111111111108,0)" xlink:href="#bm"/><use transform="matrix(0.055555555555555525,0,0,0.055555555555555525,58.72222222222219,0)" xlink:href="#aL"/><use transform="matrix(0.055555555555555525,0,0,0.055555555555555525,68.72222222222219,0)" xlink:href="#bp"/></g><g id="P"><use transform="matrix(0.055555555555555525,0,0,0.055555555555555525,0,0)" xlink:href="#bp"/><use transform="matrix(0.055555555555555525,0,0,0.055555555555555525,9.999999999999995,0)" xlink:href="#aI"/><use transform="matrix(0.055555555555555525,0,0,0.055555555555555525,16.6111111111111,0)" xlink:href="#bg"/><use transform="matrix(0.055555555555555525,0,0,0.055555555555555525,26.611111111111093,0)" xlink:href="#aJ"/><use transform="matrix(0.055555555555555525,0,0,0.055555555555555525,35.44444444444442,0)" xlink:href="#aD"/><use transform="matrix(0.055555555555555525,0,0,0.055555555555555525,44.27777777777775,0)" xlink:href="#aG"/><use transform="matrix(0.055555555555555525,0,0,0.055555555555555525,52.05555555555552,0)" xlink:href="#aG"/></g><g id="Q"><use transform="matrix(0.055555555555555525,0,0,0.055555555555555525,0,0)" xlink:href="#bu"/><use transform="matrix(0.055555555555555525,0,0,0.055555555555555525,11.111111111111105,0)" xlink:href="#bg"/><use transform="matrix(0.055555555555555525,0,0,0.055555555555555525,21.1111111111111,0)" xlink:href="#bg"/><use transform="matrix(0.055555555555555525,0,0,0.055555555555555525,31.111111111111093,0)" xlink:href="#aI"/></g><g id="R"><use transform="matrix(0.055555555555555525,0,0,0.055555555555555525,0,0)" xlink:href="#aJ"/><use transform="matrix(0.055555555555555525,0,0,0.055555555555555525,8.833333333333329,0)" xlink:href="#bg"/><use transform="matrix(0.055555555555555525,0,0,0.055555555555555525,18.83333333333332,0)" xlink:href="#br"/><use transform="matrix(0.055555555555555525,0,0,0.055555555555555525,34.38888888888887,0)" xlink:href="#br"/><use transform="matrix(0.055555555555555525,0,0,0.055555555555555525,49.944444444444414,0)" xlink:href="#aL"/><use transform="matrix(0.055555555555555525,0,0,0.055555555555555525,59.944444444444414,0)" xlink:href="#aE"/><use transform="matrix(0.055555555555555525,0,0,0.055555555555555525,69.9444444444444,0)" xlink:href="#aH"/><use transform="matrix(0.055555555555555525,0,0,0.055555555555555525,75.49999999999996,0)" xlink:href="#aJ"/><use transform="matrix(0.055555555555555525,0,0,0.055555555555555525,84.33333333333329,0)" xlink:href="#aB"/><use transform="matrix(0.055555555555555525,0,0,0.055555555555555525,93.16666666666661,0)" xlink:href="#aM"/><use transform="matrix(0.055555555555555525,0,0,0.055555555555555525,98.72222222222217,0)" xlink:href="#aH"/><use transform="matrix(0.055555555555555525,0,0,0.055555555555555525,104.27777777777773,0)" xlink:href="#bg"/><use transform="matrix(0.055555555555555525,0,0,0.055555555555555525,114.27777777777774,0)" xlink:href="#aE"/></g><g id="S"><use transform="matrix(0.055555555555555525,0,0,0.055555555555555525,0,0)" xlink:href="#bk"/><use transform="matrix(0.055555555555555525,0,0,0.055555555555555525,9.999999999999995,0)" xlink:href="#bq"/></g><g id="T"><use transform="matrix(0.055555555555555525,0,0,0.055555555555555525,0,0)" xlink:href="#aA"/><use transform="matrix(0.055555555555555525,0,0,0.055555555555555525,9.999999999999995,0)" xlink:href="#aD"/><use transform="matrix(0.055555555555555525,0,0,0.055555555555555525,18.83333333333332,0)" xlink:href="#aB"/><use transform="matrix(0.055555555555555525,0,0,0.055555555555555525,27.66666666666665,0)" xlink:href="#aC"/><use transform="matrix(0.055555555555555525,0,0,0.055555555555555525,33.2222222222222,0)" xlink:href="#aM"/><use transform="matrix(0.055555555555555525,0,0,0.055555555555555525,38.77777777777775,0)" xlink:href="#aA"/><use transform="matrix(0.055555555555555525,0,0,0.055555555555555525,48.77777777777774,0)" xlink:href="#aJ"/><use transform="matrix(0.055555555555555525,0,0,0.055555555555555525,57.611111111111065,0)" xlink:href="#aB"/><use transform="matrix(0.055555555555555525,0,0,0.055555555555555525,66.4444444444444,0)" xlink:href="#aI"/><use transform="matrix(0.055555555555555525,0,0,0.055555555555555525,73.05555555555551,0)" xlink:href="#aD"/></g><g id="U"><use transform="matrix(0.055555555555555525,0,0,0.055555555555555525,0,0)" xlink:href="#aG"/><use transform="matrix(0.055555555555555525,0,0,0.055555555555555525,7.777777777777773,0)" xlink:href="#aM"/><use transform="matrix(0.055555555555555525,0,0,0.055555555555555525,13.333333333333325,0)" xlink:href="#aB"/><use transform="matrix(0.055555555555555525,0,0,0.055555555555555525,22.166666666666654,0)" xlink:href="#bh"/><use transform="matrix(0.055555555555555525,0,0,0.055555555555555525,28.38888888888887,0)" xlink:href="#bh"/></g><path d="M75-106v92l39 5v9H13v-9l28-5v-208l-31-4v-10h177v57h-11l-6-38c-28-4-63-3-95-3v98h69l5-28h11v73h-11l-5-29H75" id="bw"/><g id="V"><use transform="matrix(0.055555555555555525,0,0,0.055555555555555525,0,0)" xlink:href="#bw"/><use transform="matrix(0.055555555555555525,0,0,0.055555555555555525,11.111111111111105,0)" xlink:href="#bg"/><use transform="matrix(0.055555555555555525,0,0,0.055555555555555525,21.1111111111111,0)" xlink:href="#aI"/><use transform="matrix(0.055555555555555525,0,0,0.055555555555555525,27.722222222222207,0)" xlink:href="#aD"/><use transform="matrix(0.055555555555555525,0,0,0.055555555555555525,36.555555555555536,0)" xlink:href="#aG"/><use transform="matrix(0.055555555555555525,0,0,0.055555555555555525,44.33333333333331,0)" xlink:href="#aH"/><use transform="matrix(0.055555555555555525,0,0,0.055555555555555525,49.88888888888886,0)" xlink:href="#aF"/><use transform="matrix(0.055555555555555525,0,0,0.055555555555555525,59.88888888888886,0)" xlink:href="#aA"/><use transform="matrix(0.055555555555555525,0,0,0.055555555555555525,69.88888888888884,0)" xlink:href="#aM"/></g><g id="W"><use transform="matrix(0.055555555555555525,0,0,0.055555555555555525,0,0)" xlink:href="#aH"/><use transform="matrix(0.055555555555555525,0,0,0.055555555555555525,5.555555555555553,0)" xlink:href="#aE"/><use transform="matrix(0.055555555555555525,0,0,0.055555555555555525,15.555555555555546,0)" xlink:href="#aM"/><use transform="matrix(0.055555555555555525,0,0,0.055555555555555525,21.1111111111111,0)" xlink:href="#bg"/></g><g id="X"><use transform="matrix(0.055555555555555525,0,0,0.055555555555555525,0,0)" xlink:href="#aJ"/><use transform="matrix(0.055555555555555525,0,0,0.055555555555555525,8.833333333333329,0)" xlink:href="#aA"/><use transform="matrix(0.055555555555555525,0,0,0.055555555555555525,18.83333333333332,0)" xlink:href="#aB"/><use transform="matrix(0.055555555555555525,0,0,0.055555555555555525,27.66666666666665,0)" xlink:href="#aC"/><use transform="matrix(0.055555555555555525,0,0,0.055555555555555525,33.2222222222222,0)" xlink:href="#aC"/><use transform="matrix(0.055555555555555525,0,0,0.055555555555555525,38.77777777777775,0)" xlink:href="#aD"/><use transform="matrix(0.055555555555555525,0,0,0.055555555555555525,47.61111111111108,0)" xlink:href="#aE"/><use transform="matrix(0.055555555555555525,0,0,0.055555555555555525,57.611111111111065,0)" xlink:href="#aF"/><use transform="matrix(0.055555555555555525,0,0,0.055555555555555525,67.61111111111107,0)" xlink:href="#aD"/><use transform="matrix(0.055555555555555525,0,0,0.055555555555555525,76.4444444444444,0)" xlink:href="#aG"/></g><g id="Y"><use transform="matrix(0.055555555555555525,0,0,0.055555555555555525,0,0)" xlink:href="#aB"/><use transform="matrix(0.055555555555555525,0,0,0.055555555555555525,8.833333333333329,0)" xlink:href="#aM"/></g><g id="Z"><use transform="matrix(0.055555555555555525,0,0,0.055555555555555525,0,0)" xlink:href="#aA"/><use transform="matrix(0.055555555555555525,0,0,0.055555555555555525,9.999999999999995,0)" xlink:href="#bg"/><use transform="matrix(0.055555555555555525,0,0,0.055555555555555525,19.99999999999999,0)" xlink:href="#aG"/><use transform="matrix(0.055555555555555525,0,0,0.055555555555555525,27.777777777777764,0)" xlink:href="#bp"/><use transform="matrix(0.055555555555555525,0,0,0.055555555555555525,37.77777777777776,0)" xlink:href="#aH"/><use transform="matrix(0.055555555555555525,0,0,0.055555555555555525,43.33333333333331,0)" xlink:href="#aM"/><use transform="matrix(0.055555555555555525,0,0,0.055555555555555525,48.88888888888886,0)" xlink:href="#aB"/><use transform="matrix(0.055555555555555525,0,0,0.055555555555555525,57.72222222222219,0)" xlink:href="#aC"/></g><g id="aa"><use transform="matrix(0.055555555555555525,0,0,0.055555555555555525,0,0)" xlink:href="#aC"/><use transform="matrix(0.055555555555555525,0,0,0.055555555555555525,5.555555555555553,0)" xlink:href="#aD"/><use transform="matrix(0.055555555555555525,0,0,0.055555555555555525,14.38888888888888,0)" xlink:href="#aK"/><use transform="matrix(0.055555555555555525,0,0,0.055555555555555525,24.38888888888888,0)" xlink:href="#aD"/><use transform="matrix(0.055555555555555525,0,0,0.055555555555555525,33.22222222222221,0)" xlink:href="#aC"/></g><path d="M134-16c44-1 70-21 70-64v-142l-32-4v-10h80v10l-30 4v141c0 57-33 84-91 85-58 0-93-26-93-82v-144l-30-4v-10h94v10l-30 4c7 82-31 209 62 206" id="bx"/><g id="ab"><use transform="matrix(0.055555555555555525,0,0,0.055555555555555525,0,0)" xlink:href="#bx"/><use transform="matrix(0.055555555555555525,0,0,0.055555555555555525,14.38888888888888,0)" xlink:href="#aE"/><use transform="matrix(0.055555555555555525,0,0,0.055555555555555525,24.388888888888875,0)" xlink:href="#aB"/><use transform="matrix(0.055555555555555525,0,0,0.055555555555555525,33.2222222222222,0)" xlink:href="#aK"/><use transform="matrix(0.055555555555555525,0,0,0.055555555555555525,43.22222222222219,0)" xlink:href="#aB"/><use transform="matrix(0.055555555555555525,0,0,0.055555555555555525,52.05555555555552,0)" xlink:href="#aH"/><use transform="matrix(0.055555555555555525,0,0,0.055555555555555525,57.611111111111065,0)" xlink:href="#aC"/><use transform="matrix(0.055555555555555525,0,0,0.055555555555555525,63.16666666666662,0)" xlink:href="#aB"/><use transform="matrix(0.055555555555555525,0,0,0.055555555555555525,71.99999999999994,0)" xlink:href="#bk"/><use transform="matrix(0.055555555555555525,0,0,0.055555555555555525,81.99999999999994,0)" xlink:href="#aH"/><use transform="matrix(0.055555555555555525,0,0,0.055555555555555525,87.5555555555555,0)" xlink:href="#aC"/><use transform="matrix(0.055555555555555525,0,0,0.055555555555555525,93.11111111111106,0)" xlink:href="#aH"/><use transform="matrix(0.055555555555555525,0,0,0.055555555555555525,98.66666666666661,0)" xlink:href="#aM"/><use transform="matrix(0.055555555555555525,0,0,0.055555555555555525,104.22222222222217,0)" xlink:href="#bq"/></g><g id="ac"><use transform="matrix(0.055555555555555525,0,0,0.055555555555555525,0,0)" xlink:href="#bp"/><use transform="matrix(0.055555555555555525,0,0,0.055555555555555525,9.999999999999995,0)" xlink:href="#aI"/><use transform="matrix(0.055555555555555525,0,0,0.055555555555555525,16.6111111111111,0)" xlink:href="#bg"/><use transform="matrix(0.055555555555555525,0,0,0.055555555555555525,26.611111111111093,0)" xlink:href="#aK"/><use transform="matrix(0.055555555555555525,0,0,0.055555555555555525,36.611111111111086,0)" xlink:href="#aH"/><use transform="matrix(0.055555555555555525,0,0,0.055555555555555525,42.166666666666636,0)" xlink:href="#bj"/><use transform="matrix(0.055555555555555525,0,0,0.055555555555555525,52.16666666666663,0)" xlink:href="#aD"/><use transform="matrix(0.055555555555555525,0,0,0.055555555555555525,60.99999999999995,0)" xlink:href="#aI"/><use transform="matrix(0.055555555555555525,0,0,0.055555555555555525,67.61111111111106,0)" xlink:href="#aG"/></g><g id="ad"><use transform="matrix(0.055555555555555525,0,0,0.055555555555555525,0,0)" xlink:href="#be"/><use transform="matrix(0.055555555555555525,0,0,0.055555555555555525,12.16666666666666,0)" xlink:href="#bg"/><use transform="matrix(0.055555555555555525,0,0,0.055555555555555525,22.166666666666657,0)" xlink:href="#aE"/><use transform="matrix(0.055555555555555525,0,0,0.055555555555555525,32.16666666666665,0)" xlink:href="#aF"/></g><g id="ae"><use transform="matrix(0.055555555555555525,0,0,0.055555555555555525,0,0)" xlink:href="#bi"/><use transform="matrix(0.055555555555555525,0,0,0.055555555555555525,14.38888888888888,0)" xlink:href="#aB"/><use transform="matrix(0.055555555555555525,0,0,0.055555555555555525,23.222222222222207,0)" xlink:href="#aH"/><use transform="matrix(0.055555555555555525,0,0,0.055555555555555525,28.77777777777776,0)" xlink:href="#aM"/></g><g id="af"><use transform="matrix(0.055555555555555525,0,0,0.055555555555555525,0,0)" xlink:href="#aM"/><use transform="matrix(0.055555555555555525,0,0,0.055555555555555525,5.555555555555553,0)" xlink:href="#aH"/><use transform="matrix(0.055555555555555525,0,0,0.055555555555555525,11.111111111111105,0)" xlink:href="#br"/><use transform="matrix(0.055555555555555525,0,0,0.055555555555555525,26.66666666666665,0)" xlink:href="#aD"/><use transform="matrix(0.055555555555555525,0,0,0.055555555555555525,35.49999999999998,0)" xlink:href="#aG"/></g><path d="M75-131c50 2 93 3 93-48 0-46-48-41-93-41v89zm0 115c55 4 111 6 111-51 0-53-58-48-111-48v99zm148-52C223 24 102-3 10 0v-9l31-5v-208l-31-4v-10c77 6 193-24 194 56 0 33-20 48-48 54 36 5 67 20 67 58" id="by"/><g id="ag"><use transform="matrix(0.055555555555555525,0,0,0.055555555555555525,0,0)" xlink:href="#by"/><use transform="matrix(0.055555555555555525,0,0,0.055555555555555525,13.333333333333325,0)" xlink:href="#aI"/><use transform="matrix(0.055555555555555525,0,0,0.055555555555555525,19.944444444444432,0)" xlink:href="#bg"/><use transform="matrix(0.055555555555555525,0,0,0.055555555555555525,29.94444444444443,0)" xlink:href="#bf"/><use transform="matrix(0.055555555555555525,0,0,0.055555555555555525,39.94444444444442,0)" xlink:href="#aD"/><use transform="matrix(0.055555555555555525,0,0,0.055555555555555525,48.77777777777775,0)" xlink:href="#aE"/></g><path d="M13-82c-2-68 46-101 114-84 8-3 15-8 28-7V64l18 4v9h-70v-9l23-4c1-25-2-53 2-75-11 8-27 15-47 15-49-1-66-35-68-86zm113-70c-53-13-86 12-81 70-6 54 34 80 81 61v-131" id="bz"/><g id="ah"><use transform="matrix(0.055555555555555525,0,0,0.055555555555555525,0,0)" xlink:href="#aD"/><use transform="matrix(0.055555555555555525,0,0,0.055555555555555525,8.833333333333329,0)" xlink:href="#bz"/><use transform="matrix(0.055555555555555525,0,0,0.055555555555555525,18.83333333333332,0)" xlink:href="#aL"/><use transform="matrix(0.055555555555555525,0,0,0.055555555555555525,28.833333333333318,0)" xlink:href="#aH"/><use transform="matrix(0.055555555555555525,0,0,0.055555555555555525,34.388888888888864,0)" xlink:href="#bp"/><use transform="matrix(0.055555555555555525,0,0,0.055555555555555525,44.38888888888886,0)" xlink:href="#br"/><use transform="matrix(0.055555555555555525,0,0,0.055555555555555525,59.9444444444444,0)" xlink:href="#aD"/><use transform="matrix(0.055555555555555525,0,0,0.055555555555555525,68.77777777777773,0)" xlink:href="#aE"/><use transform="matrix(0.055555555555555525,0,0,0.055555555555555525,78.77777777777773,0)" xlink:href="#aM"/></g><g id="ai"><use transform="matrix(0.055555555555555525,0,0,0.055555555555555525,0,0)" xlink:href="#bo"/><use transform="matrix(0.055555555555555525,0,0,0.055555555555555525,17.777777777777768,0)" xlink:href="#aL"/><use transform="matrix(0.055555555555555525,0,0,0.055555555555555525,27.777777777777764,0)" xlink:href="#aC"/><use transform="matrix(0.055555555555555525,0,0,0.055555555555555525,33.333333333333314,0)" xlink:href="#aM"/><use transform="matrix(0.055555555555555525,0,0,0.055555555555555525,38.888888888888864,0)" xlink:href="#aH"/><use transform="matrix(0.055555555555555525,0,0,0.055555555555555525,44.444444444444414,0)" xlink:href="#bm"/><use transform="matrix(0.055555555555555525,0,0,0.055555555555555525,51.05555555555552,0)" xlink:href="#aG"/><use transform="matrix(0.055555555555555525,0,0,0.055555555555555525,58.833333333333286,0)" xlink:href="#aM"/><use transform="matrix(0.055555555555555525,0,0,0.055555555555555525,64.38888888888884,0)" xlink:href="#aD"/><use transform="matrix(0.055555555555555525,0,0,0.055555555555555525,73.22222222222217,0)" xlink:href="#bp"/></g><g id="aj"><use transform="matrix(0.055555555555555525,0,0,0.055555555555555525,0,0)" xlink:href="#aJ"/><use transform="matrix(0.055555555555555525,0,0,0.055555555555555525,8.833333333333329,0)" xlink:href="#aB"/><use transform="matrix(0.055555555555555525,0,0,0.055555555555555525,17.666666666666657,0)" xlink:href="#aI"/><use transform="matrix(0.055555555555555525,0,0,0.055555555555555525,24.277777777777764,0)" xlink:href="#aD"/></g><g id="ak"><use transform="matrix(0.055555555555555525,0,0,0.055555555555555525,0,0)" xlink:href="#bp"/><use transform="matrix(0.055555555555555525,0,0,0.055555555555555525,9.999999999999995,0)" xlink:href="#aI"/><use transform="matrix(0.055555555555555525,0,0,0.055555555555555525,16.6111111111111,0)" xlink:href="#bg"/><use transform="matrix(0.055555555555555525,0,0,0.055555555555555525,26.611111111111093,0)" xlink:href="#aJ"/><use transform="matrix(0.055555555555555525,0,0,0.055555555555555525,35.44444444444442,0)" xlink:href="#aD"/><use transform="matrix(0.055555555555555525,0,0,0.055555555555555525,44.27777777777775,0)" xlink:href="#aG"/><use transform="matrix(0.055555555555555525,0,0,0.055555555555555525,52.05555555555552,0)" xlink:href="#aG"/><use transform="matrix(0.055555555555555525,0,0,0.055555555555555525,59.833333333333286,0)" xlink:href="#aD"/><use transform="matrix(0.055555555555555525,0,0,0.055555555555555525,68.66666666666663,0)" xlink:href="#aG"/></g><g id="al"><use transform="matrix(0.055555555555555525,0,0,0.055555555555555525,0,0)" xlink:href="#aG"/><use transform="matrix(0.055555555555555525,0,0,0.055555555555555525,7.777777777777773,0)" xlink:href="#aJ"/><use transform="matrix(0.055555555555555525,0,0,0.055555555555555525,16.6111111111111,0)" xlink:href="#aA"/><use transform="matrix(0.055555555555555525,0,0,0.055555555555555525,26.611111111111093,0)" xlink:href="#aD"/><use transform="matrix(0.055555555555555525,0,0,0.055555555555555525,35.44444444444442,0)" xlink:href="#bj"/><use transform="matrix(0.055555555555555525,0,0,0.055555555555555525,45.444444444444414,0)" xlink:href="#aL"/><use transform="matrix(0.055555555555555525,0,0,0.055555555555555525,55.44444444444441,0)" xlink:href="#aC"/><use transform="matrix(0.055555555555555525,0,0,0.055555555555555525,60.99999999999995,0)" xlink:href="#aH"/><use transform="matrix(0.055555555555555525,0,0,0.055555555555555525,66.55555555555551,0)" xlink:href="#aE"/><use transform="matrix(0.055555555555555525,0,0,0.055555555555555525,76.55555555555551,0)" xlink:href="#aF"/></g><g id="am"><use transform="matrix(0.055555555555555525,0,0,0.055555555555555525,0,0)" xlink:href="#aB"/><use transform="matrix(0.055555555555555525,0,0,0.055555555555555525,8.833333333333329,0)" xlink:href="#bp"/><use transform="matrix(0.055555555555555525,0,0,0.055555555555555525,18.83333333333332,0)" xlink:href="#bp"/><use transform="matrix(0.055555555555555525,0,0,0.055555555555555525,28.833333333333318,0)" xlink:href="#bg"/><use transform="matrix(0.055555555555555525,0,0,0.055555555555555525,38.83333333333331,0)" xlink:href="#aH"/><use transform="matrix(0.055555555555555525,0,0,0.055555555555555525,44.38888888888886,0)" xlink:href="#aE"/><use transform="matrix(0.055555555555555525,0,0,0.055555555555555525,54.38888888888885,0)" xlink:href="#aM"/><use transform="matrix(0.055555555555555525,0,0,0.055555555555555525,59.9444444444444,0)" xlink:href="#br"/><use transform="matrix(0.055555555555555525,0,0,0.055555555555555525,75.49999999999994,0)" xlink:href="#aD"/><use transform="matrix(0.055555555555555525,0,0,0.055555555555555525,84.33333333333327,0)" xlink:href="#aE"/><use transform="matrix(0.055555555555555525,0,0,0.055555555555555525,94.33333333333327,0)" xlink:href="#aM"/><use transform="matrix(0.055555555555555525,0,0,0.055555555555555525,99.88888888888883,0)" xlink:href="#aG"/></g><path d="M77-14l30 5v9H13v-9l30-5v-208l-30-4v-10h94v10l-30 4v208" id="bA"/><g id="an"><use transform="matrix(0.055555555555555525,0,0,0.055555555555555525,0,0)" xlink:href="#bA"/><use transform="matrix(0.055555555555555525,0,0,0.055555555555555525,6.611111111111107,0)" xlink:href="#aE"/><use transform="matrix(0.055555555555555525,0,0,0.055555555555555525,16.6111111111111,0)" xlink:href="#bj"/><use transform="matrix(0.055555555555555525,0,0,0.055555555555555525,26.611111111111093,0)" xlink:href="#aH"/><use transform="matrix(0.055555555555555525,0,0,0.055555555555555525,32.16666666666664,0)" xlink:href="#aI"/><use transform="matrix(0.055555555555555525,0,0,0.055555555555555525,38.77777777777775,0)" xlink:href="#aD"/><use transform="matrix(0.055555555555555525,0,0,0.055555555555555525,47.61111111111108,0)" xlink:href="#aJ"/><use transform="matrix(0.055555555555555525,0,0,0.055555555555555525,56.44444444444441,0)" xlink:href="#aM"/></g><path d="M55 0v-9l38-5v-207c-22 1-53 0-70 4l-5 37H7v-56h207v56h-12l-5-37-70-3v206l37 5v9H55" id="bB"/><g id="ao"><use transform="matrix(0.055555555555555525,0,0,0.055555555555555525,0,0)" xlink:href="#bB"/><use transform="matrix(0.055555555555555525,0,0,0.055555555555555525,11.44444444444444,0)" xlink:href="#aI"/><use transform="matrix(0.055555555555555525,0,0,0.055555555555555525,18.055555555555546,0)" xlink:href="#aB"/><use transform="matrix(0.055555555555555525,0,0,0.055555555555555525,26.888888888888875,0)" xlink:href="#aK"/><use transform="matrix(0.055555555555555525,0,0,0.055555555555555525,36.88888888888887,0)" xlink:href="#aD"/><use transform="matrix(0.055555555555555525,0,0,0.055555555555555525,45.7222222222222,0)" xlink:href="#aC"/></g><g id="ap"><use transform="matrix(0.055555555555555525,0,0,0.055555555555555525,0,0)" xlink:href="#aM"/><use transform="matrix(0.055555555555555525,0,0,0.055555555555555525,5.555555555555553,0)" xlink:href="#bg"/></g><g id="aq"><use transform="matrix(0.055555555555555525,0,0,0.055555555555555525,0,0)" xlink:href="#aB"/><use transform="matrix(0.055555555555555525,0,0,0.055555555555555525,8.833333333333329,0)" xlink:href="#aE"/><use transform="matrix(0.055555555555555525,0,0,0.055555555555555525,18.83333333333332,0)" xlink:href="#bj"/></g><g id="ar"><use transform="matrix(0.055555555555555525,0,0,0.055555555555555525,0,0)" xlink:href="#bh"/><use transform="matrix(0.055555555555555525,0,0,0.055555555555555525,6.611111111111107,0)" xlink:href="#aI"/><use transform="matrix(0.055555555555555525,0,0,0.055555555555555525,13.222222222222214,0)" xlink:href="#bg"/><use transform="matrix(0.055555555555555525,0,0,0.055555555555555525,23.222222222222207,0)" xlink:href="#br"/></g><g id="as"><use transform="matrix(0.055555555555555525,0,0,0.055555555555555525,0,0)" xlink:href="#aA"/><use transform="matrix(0.055555555555555525,0,0,0.055555555555555525,9.999999999999995,0)" xlink:href="#bg"/><use transform="matrix(0.055555555555555525,0,0,0.055555555555555525,19.99999999999999,0)" xlink:href="#aG"/><use transform="matrix(0.055555555555555525,0,0,0.055555555555555525,27.777777777777764,0)" xlink:href="#bp"/><use transform="matrix(0.055555555555555525,0,0,0.055555555555555525,37.77777777777776,0)" xlink:href="#aH"/><use transform="matrix(0.055555555555555525,0,0,0.055555555555555525,43.33333333333331,0)" xlink:href="#aM"/><use transform="matrix(0.055555555555555525,0,0,0.055555555555555525,48.88888888888886,0)" xlink:href="#aB"/><use transform="matrix(0.055555555555555525,0,0,0.055555555555555525,57.72222222222219,0)" xlink:href="#aC"/></g><g id="at"><use transform="matrix(0.055555555555555525,0,0,0.055555555555555525,0,0)" xlink:href="#bA"/><use transform="matrix(0.055555555555555525,0,0,0.055555555555555525,6.611111111111107,0)" xlink:href="#aE"/><use transform="matrix(0.055555555555555525,0,0,0.055555555555555525,16.6111111111111,0)" xlink:href="#aJ"/><use transform="matrix(0.055555555555555525,0,0,0.055555555555555525,25.44444444444443,0)" xlink:href="#bg"/><use transform="matrix(0.055555555555555525,0,0,0.055555555555555525,35.44444444444442,0)" xlink:href="#br"/><use transform="matrix(0.055555555555555525,0,0,0.055555555555555525,50.99999999999997,0)" xlink:href="#aD"/></g><g id="au"><use transform="matrix(0.055555555555555525,0,0,0.055555555555555525,0,0)" xlink:href="#aC"/><use transform="matrix(0.055555555555555525,0,0,0.055555555555555525,5.555555555555553,0)" xlink:href="#bg"/><use transform="matrix(0.055555555555555525,0,0,0.055555555555555525,15.555555555555546,0)" xlink:href="#aG"/><use transform="matrix(0.055555555555555525,0,0,0.055555555555555525,23.33333333333332,0)" xlink:href="#aM"/></g><g id="av"><use transform="matrix(0.055555555555555525,0,0,0.055555555555555525,0,0)" xlink:href="#bj"/><use transform="matrix(0.055555555555555525,0,0,0.055555555555555525,9.999999999999995,0)" xlink:href="#aL"/><use transform="matrix(0.055555555555555525,0,0,0.055555555555555525,19.99999999999999,0)" xlink:href="#aD"/></g><g id="aw"><use transform="matrix(0.055555555555555525,0,0,0.055555555555555525,0,0)" xlink:href="#br"/><use transform="matrix(0.055555555555555525,0,0,0.055555555555555525,15.555555555555546,0)" xlink:href="#aH"/><use transform="matrix(0.055555555555555525,0,0,0.055555555555555525,21.1111111111111,0)" xlink:href="#aG"/><use transform="matrix(0.055555555555555525,0,0,0.055555555555555525,28.88888888888887,0)" xlink:href="#aG"/><use transform="matrix(0.055555555555555525,0,0,0.055555555555555525,36.66666666666664,0)" xlink:href="#aH"/><use transform="matrix(0.055555555555555525,0,0,0.055555555555555525,42.22222222222219,0)" xlink:href="#aE"/><use transform="matrix(0.055555555555555525,0,0,0.055555555555555525,52.222222222222186,0)" xlink:href="#aF"/></g><g id="ax"><use transform="matrix(0.055555555555555525,0,0,0.055555555555555525,0,0)" xlink:href="#bj"/><use transform="matrix(0.055555555555555525,0,0,0.055555555555555525,9.999999999999995,0)" xlink:href="#aB"/><use transform="matrix(0.055555555555555525,0,0,0.055555555555555525,18.83333333333332,0)" xlink:href="#bq"/><use transform="matrix(0.055555555555555525,0,0,0.055555555555555525,28.833333333333318,0)" xlink:href="#aG"/></g><g id="ay"><use transform="matrix(0.055555555555555525,0,0,0.055555555555555525,0,0)" xlink:href="#bi"/><use transform="matrix(0.055555555555555525,0,0,0.055555555555555525,14.38888888888888,0)" xlink:href="#bg"/><use transform="matrix(0.055555555555555525,0,0,0.055555555555555525,24.388888888888875,0)" xlink:href="#aI"/><use transform="matrix(0.055555555555555525,0,0,0.055555555555555525,30.999999999999982,0)" xlink:href="#bf"/></g></defs></g></svg>