<svg xmlns="http://www.w3.org/2000/svg" xmlns:xlink="http://www.w3.org/1999/xlink" xmlns:lucid="lucid" width="689.86" height="303.08"><g transform="translate(-3555 -139.73906908992365)" lucid:page-tab-id="hmU8NzI3UjVY"><path d="M3629.4 235.85h130.06v112.77H3629.4z" stroke="#a6d0c8" stroke-width="3" fill="#a6d0c8"/><use xlink:href="#a" transform="matrix(1,0,0,1,3641.3944055594006,247.8515386126304) translate(34.99938271604939 37.538888888888884)"/><use xlink:href="#b" transform="matrix(1,0,0,1,3641.3944055594006,247.8515386126304) translate(15.091975308641992 59.51666666666666)"/><path d="M3786.72 397.08v-202.1h-5.05l10.1-9.08 10.1 9.1h-5.06v202.08zM3585.46 348.62V245.7H3580l10.93-9.85 10.93 9.84h-5.47V348.6z" stroke="#5e5e5e" stroke-width="10" fill="#5e5e5e"/><path d="M3825.2 162.74H3985v120h-159.8z" stroke="#fff" stroke-width="6" fill="#cfe4ff"/><use xlink:href="#c" transform="matrix(1,0,0,1,3837.204034835077,174.73906908992365) translate(0 40)"/><use xlink:href="#d" transform="matrix(1,0,0,1,3837.204034835077,174.73906908992365) translate(53.72222222222221 40)"/><use xlink:href="#e" transform="matrix(1,0,0,1,3837.204034835077,174.73906908992365) translate(0 64)"/><path d="M3979.5 162.74h242.36v120H3979.5z" stroke="#fff" stroke-width="6" fill="#fff"/><use xlink:href="#f" transform="matrix(1,0,0,1,3998.512088801372,181.73906908992365) translate(0 15.644480000000001)"/><use xlink:href="#g" transform="matrix(1,0,0,1,3998.512088801372,181.73906908992365) translate(59.04704777777778 15.644480000000001)"/><use xlink:href="#h" transform="matrix(1,0,0,1,3998.512088801372,181.73906908992365) translate(0 39.111200000000004)"/><use xlink:href="#i" transform="matrix(1,0,0,1,3998.512088801372,181.73906908992365) translate(98.26689 39.111200000000004)"/><use xlink:href="#j" transform="matrix(1,0,0,1,3998.512088801372,181.73906908992365) translate(0 62.577920000000006)"/><use xlink:href="#k" transform="matrix(1,0,0,1,3998.512088801372,181.73906908992365) translate(89.57551222222223 62.577920000000006)"/><use xlink:href="#l" transform="matrix(1,0,0,1,3998.512088801372,181.73906908992365) translate(104.24221222222224 62.577920000000006)"/><use xlink:href="#m" transform="matrix(1,0,0,1,3998.512088801372,181.73906908992365) translate(0 86.04464)"/><path d="M3825.2 162.74h376.66v120H3825.2z" stroke="#cfe4ff" stroke-width="6" fill-opacity="0"/><path d="M3825.2 299.82H3985v120h-159.8z" stroke="#fff" stroke-width="6" fill="#cfe4ff"/><g><use xlink:href="#n" transform="matrix(1,0,0,1,3837.2040348350793,311.81629033212243) translate(0 40)"/><use xlink:href="#o" transform="matrix(1,0,0,1,3837.2040348350793,311.81629033212243) translate(60.38888888888888 40)"/><use xlink:href="#p" transform="matrix(1,0,0,1,3837.2040348350793,311.81629033212243) translate(0 64)"/></g><path d="M3979.5 299.82h242.36v120H3979.5z" stroke="#fff" stroke-width="6" fill="#fff"/><g><use xlink:href="#f" transform="matrix(1,0,0,1,3998.512088801374,318.81629033212243) translate(0 20.76948)"/><use xlink:href="#q" transform="matrix(1,0,0,1,3998.512088801374,318.81629033212243) translate(59.04704777777778 20.76948)"/><use xlink:href="#r" transform="matrix(1,0,0,1,3998.512088801374,318.81629033212243) translate(0 44.236200000000004)"/><use xlink:href="#s" transform="matrix(1,0,0,1,3998.512088801374,318.81629033212243) translate(96.03972444444447 44.236200000000004)"/><use xlink:href="#t" transform="matrix(1,0,0,1,3998.512088801374,318.81629033212243) translate(138.84476000000004 44.236200000000004)"/><use xlink:href="#u" transform="matrix(1,0,0,1,3998.512088801374,318.81629033212243) translate(0 67.70292)"/></g><path d="M3825.2 299.82h376.66v120H3825.2z" stroke="#cfe4ff" stroke-width="6" fill-opacity="0"/><defs><path d="M185-72C185 13 82 14 19-9v-63h16c2 37 21 58 61 58 46 0 69-51 31-71-42-23-106-23-106-90 0-69 87-70 148-56v56h-16l-7-32c-26-25-110-13-82 35 39 34 121 26 121 100" id="v"/><path d="M12-83c0-55 22-85 75-86 52-1 66 33 63 88H64c-1 37 6 64 44 63 14 0 28-4 39-6 3 28-28 25-55 27-57 4-80-31-80-86zm90-17c2-26 0-63-27-48-10 9-11 28-11 48h38" id="w"/><path d="M76-16l18 4V0H7v-12l18-4v-218l-17-4v-12h68v234" id="x"/><path d="M107-230c-31-13-29 30-29 65h34v18H78v131l27 4V0H10v-12l18-4v-131H3v-12l25-7c-8-66 31-98 95-84v39h-11" id="y"/><path d="M13-69v-31h94v31H13" id="z"/><g id="a"><use transform="matrix(0.05308641975308641,0,0,0.05308641975308641,0,0)" xlink:href="#v"/><use transform="matrix(0.05308641975308641,0,0,0.05308641975308641,10.617283950617281,0)" xlink:href="#w"/><use transform="matrix(0.05308641975308641,0,0,0.05308641975308641,19.05802469135802,0)" xlink:href="#x"/><use transform="matrix(0.05308641975308641,0,0,0.05308641975308641,24.36666666666666,0)" xlink:href="#y"/><use transform="matrix(0.05308641975308641,0,0,0.05308641975308641,30.683950617283937,0)" xlink:href="#z"/></g><path d="M132-132c-21 0-37 9-50 16v100l26 4V0H10v-12l21-4v-133l-21-5v-11h69l2 34c17-18 35-41 71-40v61c-17 3-14-14-20-22" id="A"/><path d="M109-18c15 0 31-2 42-6v14c-11 9-31 13-51 13-59 0-86-28-88-86-3-75 66-101 135-80v48h-13c-3-20-7-40-34-37-51 7-55 138 9 134" id="B"/><path d="M78-41c-2 24 21 26 40 20C122 3 98 2 77 4 5 10 32-84 27-147H6v-11l25-7 21-38h26v38h35v18H78v106" id="C"/><path d="M77-16l18 4V0H8v-12l18-4v-133l-17-5v-11h68v149zM51-196c-16 0-27-10-27-27s10-27 27-27 27 11 27 27c0 17-10 27-27 27" id="D"/><path d="M90-170c54-1 76 32 76 87 1 56-23 87-77 87-53 0-75-32-75-87s23-86 76-87zM89-14c28-2 26-38 26-69s3-69-26-69c-27 0-24 39-24 69s-3 66 24 69" id="E"/><path d="M127-114c3-31-26-38-50-25v123l15 4V0H10v-12l16-4v-133l-16-5v-11h64l2 14c31-23 102-32 102 30v105l17 4V0h-82v-12l14-4v-98" id="F"/><g id="b"><use transform="matrix(0.05308641975308641,0,0,0.05308641975308641,0,0)" xlink:href="#A"/><use transform="matrix(0.05308641975308641,0,0,0.05308641975308641,8.069135802469136,0)" xlink:href="#w"/><use transform="matrix(0.05308641975308641,0,0,0.05308641975308641,16.509876543209877,0)" xlink:href="#y"/><use transform="matrix(0.05308641975308641,0,0,0.05308641975308641,22.827160493827158,0)" xlink:href="#x"/><use transform="matrix(0.05308641975308641,0,0,0.05308641975308641,28.135802469135797,0)" xlink:href="#w"/><use transform="matrix(0.05308641975308641,0,0,0.05308641975308641,36.57654320987653,0)" xlink:href="#B"/><use transform="matrix(0.05308641975308641,0,0,0.05308641975308641,45.01728395061727,0)" xlink:href="#C"/><use transform="matrix(0.05308641975308641,0,0,0.05308641975308641,51.33456790123455,0)" xlink:href="#D"/><use transform="matrix(0.05308641975308641,0,0,0.05308641975308641,56.64320987654319,0)" xlink:href="#E"/><use transform="matrix(0.05308641975308641,0,0,0.05308641975308641,66.19876543209874,0)" xlink:href="#F"/></g><path d="M75-131c50 2 93 3 93-48 0-46-48-41-93-41v89zm0 115c55 4 111 6 111-51 0-53-58-48-111-48v99zm148-52C223 24 102-3 10 0v-9l31-5v-208l-31-4v-10c77 6 193-24 194 56 0 33-20 48-48 54 36 5 67 20 67 58" id="G"/><path d="M84-170c49 0 66 33 63 87H46c-8 60 38 80 95 63v10C128-2 108 4 88 4 34 4 14-29 14-84c-1-54 22-86 70-86zm33 73c12-57-57-82-69-24-1 7-2 15-2 24h71" id="H"/><path d="M54-38c-1 25 24 26 44 20v12C71 10 25 9 25-35v-115H4c-2-14 14-10 21-15l18-38h11v38h38v15H54v112" id="I"/><path d="M57-145c16-10 35-24 60-25v45c-19 1-8-30-40-17l-20 6v124l29 4v8H7v-8l21-4v-141c-8-3-24 2-21-12h48" id="J"/><g id="c"><use transform="matrix(0.055555555555555546,0,0,0.055555555555555546,0,0)" xlink:href="#G"/><use transform="matrix(0.055555555555555546,0,0,0.055555555555555546,13.33333333333333,0)" xlink:href="#H"/><use transform="matrix(0.055555555555555546,0,0,0.055555555555555546,22.166666666666664,0)" xlink:href="#I"/><use transform="matrix(0.055555555555555546,0,0,0.055555555555555546,27.722222222222218,0)" xlink:href="#I"/><use transform="matrix(0.055555555555555546,0,0,0.055555555555555546,33.27777777777777,0)" xlink:href="#H"/><use transform="matrix(0.055555555555555546,0,0,0.055555555555555546,42.1111111111111,0)" xlink:href="#J"/></g><path d="M126-118c4-37-42-32-68-25v131l24 4v8H8C5-13 21-9 28-12v-141c-7-3-23 1-20-12h48l1 13c22-15 77-30 92 2 32-22 104-36 104 29v109c8 3 24-2 21 12h-75v-8l25-4v-106c3-39-45-31-72-24 7 37 1 88 3 130l25 4v8h-78v-8l24-4v-106" id="K"/><path d="M90-170c52 0 76 32 76 87 0 54-24 87-77 87-51 0-75-34-75-87 0-54 24-87 76-87zM89-10c39 0 46-35 46-73 0-39-7-73-46-73-39 1-44 34-44 73s6 72 44 73" id="L"/><path d="M161-154L85 37C75 66 49 86 8 75V39c18-2 6 24 29 21 30-4 38-32 47-58L21-153c-7-3-20 0-17-12h77v8l-26 4 45 116 43-116-26-4v-8h62v8" id="M"/><g id="d"><use transform="matrix(0.055555555555555546,0,0,0.055555555555555546,0,0)" xlink:href="#K"/><use transform="matrix(0.055555555555555546,0,0,0.055555555555555546,15.555555555555554,0)" xlink:href="#H"/><use transform="matrix(0.055555555555555546,0,0,0.055555555555555546,24.388888888888886,0)" xlink:href="#K"/><use transform="matrix(0.055555555555555546,0,0,0.055555555555555546,39.94444444444444,0)" xlink:href="#L"/><use transform="matrix(0.055555555555555546,0,0,0.055555555555555546,49.94444444444444,0)" xlink:href="#J"/><use transform="matrix(0.055555555555555546,0,0,0.055555555555555546,56.55555555555555,0)" xlink:href="#M"/></g><path d="M166-85c3 67-44 102-111 85l1 64 29 4v9H6v-9l21-4v-217c-7-3-22 1-19-12h46l1 9c11-8 26-14 45-14 47 2 64 36 66 85zM56-13c53 14 83-14 78-72 7-53-33-79-78-60v132" id="N"/><path d="M103-236c-39-15-35 32-34 71h44v15H69v136l35 6v8H15v-8l25-6v-136H11v-9l29-7c-6-59 23-100 80-84v36c-15 2-12-14-17-22" id="O"/><path d="M32-163c41-10 102-14 102 39v112c8 3 24-2 21 12h-45l-4-17C83 13 3 13 13-46c-2-50 45-50 92-51 4-36-5-70-42-56-6 2-12 4-16 6-4 7 0 23-15 20v-36zM42-47c0 41 41 33 63 22v-59c-34 1-63-1-63 37" id="P"/><path d="M125-118c4-37-41-34-68-26v132l23 4v8H8C5-13 21-9 28-12v-141c-7-3-23 1-20-12h47l2 13c31-23 98-29 98 31v109c7 3 23-1 20 12h-72v-8l22-4v-106" id="Q"/><path d="M45-84c0 64 52 80 104 63 1 25-30 25-55 25-56 0-80-32-80-88 0-76 62-98 131-80v46h-10c-5-15-4-31-23-35-47-10-67 21-67 69" id="R"/><g id="e"><use transform="matrix(0.055555555555555546,0,0,0.055555555555555546,0,0)" xlink:href="#N"/><use transform="matrix(0.055555555555555546,0,0,0.055555555555555546,9.999999999999998,0)" xlink:href="#H"/><use transform="matrix(0.055555555555555546,0,0,0.055555555555555546,18.83333333333333,0)" xlink:href="#J"/><use transform="matrix(0.055555555555555546,0,0,0.055555555555555546,25.44444444444444,0)" xlink:href="#O"/><use transform="matrix(0.055555555555555546,0,0,0.055555555555555546,32.05555555555555,0)" xlink:href="#L"/><use transform="matrix(0.055555555555555546,0,0,0.055555555555555546,42.05555555555555,0)" xlink:href="#J"/><use transform="matrix(0.055555555555555546,0,0,0.055555555555555546,48.66666666666666,0)" xlink:href="#K"/><use transform="matrix(0.055555555555555546,0,0,0.055555555555555546,64.22222222222221,0)" xlink:href="#P"/><use transform="matrix(0.055555555555555546,0,0,0.055555555555555546,73.05555555555554,0)" xlink:href="#Q"/><use transform="matrix(0.055555555555555546,0,0,0.055555555555555546,83.05555555555554,0)" xlink:href="#R"/><use transform="matrix(0.055555555555555546,0,0,0.055555555555555546,91.88888888888887,0)" xlink:href="#H"/></g><path d="M10 0v-9l31-5v-208l-31-4v-10h95v10l-30 4v93h110v-93l-30-4v-10h94v10l-30 4v208l30 5v9h-94v-9l30-5v-99H75v99l30 5v9H10" id="S"/><path d="M47-200c-23 0-25-39 0-38 13 0 18 7 20 19-1 11-8 19-20 19zM65-12l28 4v8H8v-8l28-4v-141l-24-4v-8h53v153" id="T"/><path d="M141-152c28 39 5 97-54 97-9 0-20-2-27-3L49-35c29 22 130-14 124 52-4 45-38 57-88 61C21 83-8 26 45-2 33-6 22-15 21-31l28-31c-19-9-28-26-28-51-2-51 53-65 100-52l38-20 7 8zM85 64c35 0 61-11 61-42 0-35-57-17-89-21-9 8-16 19-17 34 0 25 19 29 45 29zM52-113c1 26 7 46 35 44 28-1 34-16 35-44 0-26-6-43-34-43s-36 17-36 43" id="U"/><path d="M126-119c3-38-42-31-69-25v132l23 4v8H7v-8l21-4v-226l-24-4v-8h53l-1 98c31-22 99-31 99 31v109c7 3 23-1 20 12h-71v-8l22-4v-107" id="V"/><g id="f"><use transform="matrix(0.05432111111111112,0,0,0.05432111111111112,0,0)" xlink:href="#S"/><use transform="matrix(0.05432111111111112,0,0,0.05432111111111112,14.06916777777778,0)" xlink:href="#T"/><use transform="matrix(0.05432111111111112,0,0,0.05432111111111112,19.50127888888889,0)" xlink:href="#U"/><use transform="matrix(0.05432111111111112,0,0,0.05432111111111112,29.279078888888886,0)" xlink:href="#V"/><use transform="matrix(0.05432111111111112,0,0,0.05432111111111112,39.05687888888889,0)" xlink:href="#H"/><use transform="matrix(0.05432111111111112,0,0,0.05432111111111112,47.693935555555555,0)" xlink:href="#J"/></g><path d="M75-108c48 3 76-12 76-58s-28-57-76-54v112zm111-58c-1 60-46 78-111 74v78l37 5v9H13v-9l28-5v-208l-31-4v-10c81 1 178-14 176 70" id="W"/><path d="M65-12l28 4v8H7v-8l28-4v-226l-28-4v-8h58v238" id="X"/><g id="g"><use transform="matrix(0.05432111111111112,0,0,0.05432111111111112,0,0)" xlink:href="#W"/><use transform="matrix(0.05432111111111112,0,0,0.05432111111111112,10.864222222222224,0)" xlink:href="#J"/><use transform="matrix(0.05432111111111112,0,0,0.05432111111111112,17.328434444444447,0)" xlink:href="#H"/><use transform="matrix(0.05432111111111112,0,0,0.05432111111111112,25.965491111111113,0)" xlink:href="#R"/><use transform="matrix(0.05432111111111112,0,0,0.05432111111111112,34.60254777777778,0)" xlink:href="#X"/><use transform="matrix(0.05432111111111112,0,0,0.05432111111111112,40.03465888888889,0)" xlink:href="#T"/><use transform="matrix(0.05432111111111112,0,0,0.05432111111111112,45.466770000000004,0)" xlink:href="#Q"/><use transform="matrix(0.05432111111111112,0,0,0.05432111111111112,55.24457,0)" xlink:href="#T"/><use transform="matrix(0.05432111111111112,0,0,0.05432111111111112,60.67668111111112,0)" xlink:href="#R"/><use transform="matrix(0.05432111111111112,0,0,0.05432111111111112,69.31373777777779,0)" xlink:href="#P"/><use transform="matrix(0.05432111111111112,0,0,0.05432111111111112,77.95079444444445,0)" xlink:href="#X"/></g><path d="M81-9v9H4v-9l26-5 81-224h33l83 224 30 5v9h-99v-9l31-5-23-68H73L49-14zm38-203L78-98h82" id="Y"/><path d="M10 0v-8l90-143c-23 2-54-4-70 6-5 8 1 26-14 24v-44h122v8L47-14c29-2 65 3 86-8l9-35h8l-5 57H10" id="Z"/><path d="M15-236h35l-11 85H26" id="aa"/><path d="M41-130c7 48 86 23 86 84 0 56-69 57-112 41v-40c20 0 9 29 31 31 35 19 77-26 41-50-27-18-72-13-72-59 0-50 58-52 100-41v36c-19 1-8-25-28-25-21-7-50-1-46 23" id="ab"/><g id="h"><use transform="matrix(0.05432111111111112,0,0,0.05432111111111112,0,0)" xlink:href="#Y"/><use transform="matrix(0.05432111111111112,0,0,0.05432111111111112,14.06916777777778,0)" xlink:href="#X"/><use transform="matrix(0.05432111111111112,0,0,0.05432111111111112,19.50127888888889,0)" xlink:href="#Z"/><use transform="matrix(0.05432111111111112,0,0,0.05432111111111112,28.13833555555556,0)" xlink:href="#V"/><use transform="matrix(0.05432111111111112,0,0,0.05432111111111112,37.916135555555556,0)" xlink:href="#H"/><use transform="matrix(0.05432111111111112,0,0,0.05432111111111112,46.55319222222222,0)" xlink:href="#T"/><use transform="matrix(0.05432111111111112,0,0,0.05432111111111112,51.985303333333334,0)" xlink:href="#K"/><use transform="matrix(0.05432111111111112,0,0,0.05432111111111112,67.19521444444445,0)" xlink:href="#H"/><use transform="matrix(0.05432111111111112,0,0,0.05432111111111112,75.83227111111111,0)" xlink:href="#J"/><use transform="matrix(0.05432111111111112,0,0,0.05432111111111112,82.29648333333333,0)" xlink:href="#aa"/><use transform="matrix(0.05432111111111112,0,0,0.05432111111111112,85.77303444444443,0)" xlink:href="#ab"/></g><path d="M52-115c0 93 80 130 150 87l7-35h11l-1 55c-23 7-52 12-83 12C60 4 19-37 15-115c-5-113 97-141 201-114l1 51h-12l-5-30c-15-9-39-16-62-16-66 0-86 41-86 109" id="ac"/><path d="M164-154L98 4H85L17-153c-7-3-20 0-17-12h77v8l-26 4L99-38l46-115-26-4v-8h61v8" id="ad"/><g id="i"><use transform="matrix(0.05432111111111112,0,0,0.05432111111111112,0,0)" xlink:href="#ac"/><use transform="matrix(0.05432111111111112,0,0,0.05432111111111112,13.037066666666668,0)" xlink:href="#L"/><use transform="matrix(0.05432111111111112,0,0,0.05432111111111112,22.814866666666667,0)" xlink:href="#U"/><use transform="matrix(0.05432111111111112,0,0,0.05432111111111112,32.592666666666666,0)" xlink:href="#Q"/><use transform="matrix(0.05432111111111112,0,0,0.05432111111111112,42.370466666666665,0)" xlink:href="#T"/><use transform="matrix(0.05432111111111112,0,0,0.05432111111111112,47.80257777777778,0)" xlink:href="#I"/><use transform="matrix(0.05432111111111112,0,0,0.05432111111111112,53.23468888888889,0)" xlink:href="#T"/><use transform="matrix(0.05432111111111112,0,0,0.05432111111111112,58.66680000000001,0)" xlink:href="#ad"/><use transform="matrix(0.05432111111111112,0,0,0.05432111111111112,68.44460000000001,0)" xlink:href="#H"/></g><g id="j"><use transform="matrix(0.05432111111111112,0,0,0.05432111111111112,0,0)" xlink:href="#ac"/><use transform="matrix(0.05432111111111112,0,0,0.05432111111111112,13.037066666666668,0)" xlink:href="#L"/><use transform="matrix(0.05432111111111112,0,0,0.05432111111111112,22.814866666666667,0)" xlink:href="#K"/><use transform="matrix(0.05432111111111112,0,0,0.05432111111111112,38.02477777777778,0)" xlink:href="#N"/><use transform="matrix(0.05432111111111112,0,0,0.05432111111111112,47.80257777777778,0)" xlink:href="#L"/><use transform="matrix(0.05432111111111112,0,0,0.05432111111111112,57.58037777777778,0)" xlink:href="#ab"/><use transform="matrix(0.05432111111111112,0,0,0.05432111111111112,65.18533333333333,0)" xlink:href="#T"/><use transform="matrix(0.05432111111111112,0,0,0.05432111111111112,70.61744444444444,0)" xlink:href="#I"/><use transform="matrix(0.05432111111111112,0,0,0.05432111111111112,76.04955555555556,0)" xlink:href="#H"/></g><path d="M134-68c4-52-44-63-88-51H29v-117h119v27H45v75c60-10 121-2 121 64C166 3 87 15 23-4l-2-50h12c1 28 14 43 47 43 39 0 51-20 54-57" id="ae"/><use transform="matrix(0.05432111111111112,0,0,0.05432111111111112,0,0)" xlink:href="#ae" id="k"/><path d="M108-235c-52 28-62 95-58 178 3 56 21 97 58 119v15C7 49-17-153 67-223c12-10 25-19 41-27v15" id="af"/><path d="M12-250C113-222 137-19 52 49 40 59 28 69 12 77V62C56 37 70-16 70-87c0-70-13-123-58-148v-15" id="ag"/><g id="l"><use transform="matrix(0.05432111111111112,0,0,0.05432111111111112,0,0)" xlink:href="#af"/><use transform="matrix(0.05432111111111112,0,0,0.05432111111111112,6.464212222222223,0)" xlink:href="#W"/><use transform="matrix(0.05432111111111112,0,0,0.05432111111111112,15.53583777777778,0)" xlink:href="#Y"/><use transform="matrix(0.05432111111111112,0,0,0.05432111111111112,29.60500555555556,0)" xlink:href="#ac"/><use transform="matrix(0.05432111111111112,0,0,0.05432111111111112,42.642072222222225,0)" xlink:href="#ac"/><use transform="matrix(0.05432111111111112,0,0,0.05432111111111112,55.67913888888889,0)" xlink:href="#ae"/><use transform="matrix(0.05432111111111112,0,0,0.05432111111111112,65.4569388888889,0)" xlink:href="#ag"/></g><g id="m"><use transform="matrix(0.05432111111111112,0,0,0.05432111111111112,0,0)" xlink:href="#ab"/><use transform="matrix(0.05432111111111112,0,0,0.05432111111111112,7.604955555555557,0)" xlink:href="#R"/><use transform="matrix(0.05432111111111112,0,0,0.05432111111111112,16.242012222222225,0)" xlink:href="#L"/><use transform="matrix(0.05432111111111112,0,0,0.05432111111111112,26.019812222222228,0)" xlink:href="#J"/><use transform="matrix(0.05432111111111112,0,0,0.05432111111111112,32.48402444444445,0)" xlink:href="#H"/></g><g id="n"><use transform="matrix(0.055555555555555546,0,0,0.055555555555555546,0,0)" xlink:href="#S"/><use transform="matrix(0.055555555555555546,0,0,0.055555555555555546,14.388888888888886,0)" xlink:href="#T"/><use transform="matrix(0.055555555555555546,0,0,0.055555555555555546,19.94444444444444,0)" xlink:href="#U"/><use transform="matrix(0.055555555555555546,0,0,0.055555555555555546,29.944444444444432,0)" xlink:href="#V"/><use transform="matrix(0.055555555555555546,0,0,0.055555555555555546,39.944444444444436,0)" xlink:href="#H"/><use transform="matrix(0.055555555555555546,0,0,0.055555555555555546,48.77777777777777,0)" xlink:href="#J"/></g><path d="M124-13C89 8 26 15 26-45v-108c-8-3-24 2-21-12h50v118c-3 37 42 32 69 25v-131l-25-4v-8h54v153c8 3 24-2 21 12h-48" id="ah"/><g id="o"><use transform="matrix(0.055555555555555546,0,0,0.055555555555555546,0,0)" xlink:href="#U"/><use transform="matrix(0.055555555555555546,0,0,0.055555555555555546,9.999999999999998,0)" xlink:href="#X"/><use transform="matrix(0.055555555555555546,0,0,0.055555555555555546,15.555555555555554,0)" xlink:href="#ah"/><use transform="matrix(0.055555555555555546,0,0,0.055555555555555546,25.55555555555555,0)" xlink:href="#R"/><use transform="matrix(0.055555555555555546,0,0,0.055555555555555546,34.388888888888886,0)" xlink:href="#L"/><use transform="matrix(0.055555555555555546,0,0,0.055555555555555546,44.388888888888886,0)" xlink:href="#ab"/><use transform="matrix(0.055555555555555546,0,0,0.055555555555555546,52.166666666666664,0)" xlink:href="#H"/></g><path d="M53-14c58 12 82-15 82-73 0-52-35-77-82-58v131zM89 4C64 4 42-2 24-9v-229l-24-4v-8h53l-1 94c48-33 114-4 114 69 0 57-23 91-77 91" id="ai"/><g id="p"><use transform="matrix(0.055555555555555546,0,0,0.055555555555555546,0,0)" xlink:href="#K"/><use transform="matrix(0.055555555555555546,0,0,0.055555555555555546,15.555555555555554,0)" xlink:href="#H"/><use transform="matrix(0.055555555555555546,0,0,0.055555555555555546,24.388888888888886,0)" xlink:href="#I"/><use transform="matrix(0.055555555555555546,0,0,0.055555555555555546,29.94444444444444,0)" xlink:href="#P"/><use transform="matrix(0.055555555555555546,0,0,0.055555555555555546,38.77777777777777,0)" xlink:href="#ai"/><use transform="matrix(0.055555555555555546,0,0,0.055555555555555546,48.77777777777777,0)" xlink:href="#L"/><use transform="matrix(0.055555555555555546,0,0,0.055555555555555546,58.777777777777764,0)" xlink:href="#X"/><use transform="matrix(0.055555555555555546,0,0,0.055555555555555546,64.33333333333333,0)" xlink:href="#T"/><use transform="matrix(0.055555555555555546,0,0,0.055555555555555546,69.88888888888889,0)" xlink:href="#ab"/><use transform="matrix(0.055555555555555546,0,0,0.055555555555555546,77.66666666666666,0)" xlink:href="#K"/></g><g id="q"><use transform="matrix(0.05432111111111112,0,0,0.05432111111111112,0,0)" xlink:href="#U"/><use transform="matrix(0.05432111111111112,0,0,0.05432111111111112,9.777800000000001,0)" xlink:href="#X"/><use transform="matrix(0.05432111111111112,0,0,0.05432111111111112,15.209911111111113,0)" xlink:href="#ah"/><use transform="matrix(0.05432111111111112,0,0,0.05432111111111112,24.987711111111114,0)" xlink:href="#R"/><use transform="matrix(0.05432111111111112,0,0,0.05432111111111112,33.624767777777784,0)" xlink:href="#L"/><use transform="matrix(0.05432111111111112,0,0,0.05432111111111112,43.40256777777778,0)" xlink:href="#ab"/><use transform="matrix(0.05432111111111112,0,0,0.05432111111111112,51.00752333333334,0)" xlink:href="#H"/></g><g id="r"><use transform="matrix(0.05432111111111112,0,0,0.05432111111111112,0,0)" xlink:href="#K"/><use transform="matrix(0.05432111111111112,0,0,0.05432111111111112,15.209911111111113,0)" xlink:href="#H"/><use transform="matrix(0.05432111111111112,0,0,0.05432111111111112,23.84696777777778,0)" xlink:href="#I"/><use transform="matrix(0.05432111111111112,0,0,0.05432111111111112,29.279078888888893,0)" xlink:href="#P"/><use transform="matrix(0.05432111111111112,0,0,0.05432111111111112,37.91613555555556,0)" xlink:href="#ai"/><use transform="matrix(0.05432111111111112,0,0,0.05432111111111112,47.69393555555556,0)" xlink:href="#L"/><use transform="matrix(0.05432111111111112,0,0,0.05432111111111112,57.47173555555556,0)" xlink:href="#X"/><use transform="matrix(0.05432111111111112,0,0,0.05432111111111112,62.903846666666674,0)" xlink:href="#T"/><use transform="matrix(0.05432111111111112,0,0,0.05432111111111112,68.3359577777778,0)" xlink:href="#ab"/><use transform="matrix(0.05432111111111112,0,0,0.05432111111111112,75.94091333333336,0)" xlink:href="#K"/></g><g id="s"><use transform="matrix(0.05432111111111112,0,0,0.05432111111111112,0,0)" xlink:href="#O"/><use transform="matrix(0.05432111111111112,0,0,0.05432111111111112,6.464212222222223,0)" xlink:href="#J"/><use transform="matrix(0.05432111111111112,0,0,0.05432111111111112,12.928424444444445,0)" xlink:href="#L"/><use transform="matrix(0.05432111111111112,0,0,0.05432111111111112,22.706224444444445,0)" xlink:href="#K"/></g><path d="M10-9l31-5v-208l-31-4v-10h177v57h-11l-6-38c-28-4-63-3-95-3v92h63l6-28h11v73h-11l-6-29H75v96l105-3 10-43h12l-3 62H10v-9" id="aj"/><path d="M55 0v-9l38-5v-207c-22 1-53 0-70 4l-5 37H7v-56h207v56h-12l-5-37-70-3v206l37 5v9H55" id="ak"/><g id="t"><use transform="matrix(0.05432111111111112,0,0,0.05432111111111112,0,0)" xlink:href="#W"/><use transform="matrix(0.05432111111111112,0,0,0.05432111111111112,10.864222222222224,0)" xlink:href="#aj"/><use transform="matrix(0.05432111111111112,0,0,0.05432111111111112,22.76054555555556,0)" xlink:href="#ak"/></g><g id="u"><use transform="matrix(0.05432111111111112,0,0,0.05432111111111112,0,0)" xlink:href="#ab"/><use transform="matrix(0.05432111111111112,0,0,0.05432111111111112,7.604955555555557,0)" xlink:href="#R"/><use transform="matrix(0.05432111111111112,0,0,0.05432111111111112,16.242012222222225,0)" xlink:href="#P"/><use transform="matrix(0.05432111111111112,0,0,0.05432111111111112,24.879068888888895,0)" xlink:href="#Q"/></g></defs></g></svg>